%TF.GenerationSoftware,KiCad,Pcbnew,8.0.2*%
%TF.CreationDate,2024-06-03T18:55:52+02:00*%
%TF.ProjectId,Taupunkt,54617570-756e-46b7-942e-6b696361645f,rev?*%
%TF.SameCoordinates,Original*%
%TF.FileFunction,Legend,Top*%
%TF.FilePolarity,Positive*%
%FSLAX46Y46*%
G04 Gerber Fmt 4.6, Leading zero omitted, Abs format (unit mm)*
G04 Created by KiCad (PCBNEW 8.0.2) date 2024-06-03 18:55:52*
%MOMM*%
%LPD*%
G01*
G04 APERTURE LIST*
%ADD10C,0.100000*%
%ADD11C,0.150000*%
%ADD12C,0.120000*%
G04 APERTURE END LIST*
D10*
X122803884Y-134872419D02*
X122803884Y-133872419D01*
X122803884Y-133872419D02*
X123137217Y-134586704D01*
X123137217Y-134586704D02*
X123470550Y-133872419D01*
X123470550Y-133872419D02*
X123470550Y-134872419D01*
X124137217Y-133872419D02*
X124327693Y-133872419D01*
X124327693Y-133872419D02*
X124422931Y-133920038D01*
X124422931Y-133920038D02*
X124518169Y-134015276D01*
X124518169Y-134015276D02*
X124565788Y-134205752D01*
X124565788Y-134205752D02*
X124565788Y-134539085D01*
X124565788Y-134539085D02*
X124518169Y-134729561D01*
X124518169Y-134729561D02*
X124422931Y-134824800D01*
X124422931Y-134824800D02*
X124327693Y-134872419D01*
X124327693Y-134872419D02*
X124137217Y-134872419D01*
X124137217Y-134872419D02*
X124041979Y-134824800D01*
X124041979Y-134824800D02*
X123946741Y-134729561D01*
X123946741Y-134729561D02*
X123899122Y-134539085D01*
X123899122Y-134539085D02*
X123899122Y-134205752D01*
X123899122Y-134205752D02*
X123946741Y-134015276D01*
X123946741Y-134015276D02*
X124041979Y-133920038D01*
X124041979Y-133920038D02*
X124137217Y-133872419D01*
X124946741Y-134824800D02*
X125089598Y-134872419D01*
X125089598Y-134872419D02*
X125327693Y-134872419D01*
X125327693Y-134872419D02*
X125422931Y-134824800D01*
X125422931Y-134824800D02*
X125470550Y-134777180D01*
X125470550Y-134777180D02*
X125518169Y-134681942D01*
X125518169Y-134681942D02*
X125518169Y-134586704D01*
X125518169Y-134586704D02*
X125470550Y-134491466D01*
X125470550Y-134491466D02*
X125422931Y-134443847D01*
X125422931Y-134443847D02*
X125327693Y-134396228D01*
X125327693Y-134396228D02*
X125137217Y-134348609D01*
X125137217Y-134348609D02*
X125041979Y-134300990D01*
X125041979Y-134300990D02*
X124994360Y-134253371D01*
X124994360Y-134253371D02*
X124946741Y-134158133D01*
X124946741Y-134158133D02*
X124946741Y-134062895D01*
X124946741Y-134062895D02*
X124994360Y-133967657D01*
X124994360Y-133967657D02*
X125041979Y-133920038D01*
X125041979Y-133920038D02*
X125137217Y-133872419D01*
X125137217Y-133872419D02*
X125375312Y-133872419D01*
X125375312Y-133872419D02*
X125518169Y-133920038D01*
X125946741Y-134872419D02*
X125946741Y-133872419D01*
X106364800Y-93743734D02*
X106412419Y-93600877D01*
X106412419Y-93600877D02*
X106412419Y-93362782D01*
X106412419Y-93362782D02*
X106364800Y-93267544D01*
X106364800Y-93267544D02*
X106317180Y-93219925D01*
X106317180Y-93219925D02*
X106221942Y-93172306D01*
X106221942Y-93172306D02*
X106126704Y-93172306D01*
X106126704Y-93172306D02*
X106031466Y-93219925D01*
X106031466Y-93219925D02*
X105983847Y-93267544D01*
X105983847Y-93267544D02*
X105936228Y-93362782D01*
X105936228Y-93362782D02*
X105888609Y-93553258D01*
X105888609Y-93553258D02*
X105840990Y-93648496D01*
X105840990Y-93648496D02*
X105793371Y-93696115D01*
X105793371Y-93696115D02*
X105698133Y-93743734D01*
X105698133Y-93743734D02*
X105602895Y-93743734D01*
X105602895Y-93743734D02*
X105507657Y-93696115D01*
X105507657Y-93696115D02*
X105460038Y-93648496D01*
X105460038Y-93648496D02*
X105412419Y-93553258D01*
X105412419Y-93553258D02*
X105412419Y-93315163D01*
X105412419Y-93315163D02*
X105460038Y-93172306D01*
X106412419Y-92743734D02*
X105412419Y-92743734D01*
X105412419Y-92743734D02*
X105412419Y-92505639D01*
X105412419Y-92505639D02*
X105460038Y-92362782D01*
X105460038Y-92362782D02*
X105555276Y-92267544D01*
X105555276Y-92267544D02*
X105650514Y-92219925D01*
X105650514Y-92219925D02*
X105840990Y-92172306D01*
X105840990Y-92172306D02*
X105983847Y-92172306D01*
X105983847Y-92172306D02*
X106174323Y-92219925D01*
X106174323Y-92219925D02*
X106269561Y-92267544D01*
X106269561Y-92267544D02*
X106364800Y-92362782D01*
X106364800Y-92362782D02*
X106412419Y-92505639D01*
X106412419Y-92505639D02*
X106412419Y-92743734D01*
X106126704Y-91791353D02*
X106126704Y-91315163D01*
X106412419Y-91886591D02*
X105412419Y-91553258D01*
X105412419Y-91553258D02*
X106412419Y-91219925D01*
X74420038Y-147172306D02*
X74372419Y-147267544D01*
X74372419Y-147267544D02*
X74372419Y-147410401D01*
X74372419Y-147410401D02*
X74420038Y-147553258D01*
X74420038Y-147553258D02*
X74515276Y-147648496D01*
X74515276Y-147648496D02*
X74610514Y-147696115D01*
X74610514Y-147696115D02*
X74800990Y-147743734D01*
X74800990Y-147743734D02*
X74943847Y-147743734D01*
X74943847Y-147743734D02*
X75134323Y-147696115D01*
X75134323Y-147696115D02*
X75229561Y-147648496D01*
X75229561Y-147648496D02*
X75324800Y-147553258D01*
X75324800Y-147553258D02*
X75372419Y-147410401D01*
X75372419Y-147410401D02*
X75372419Y-147315163D01*
X75372419Y-147315163D02*
X75324800Y-147172306D01*
X75324800Y-147172306D02*
X75277180Y-147124687D01*
X75277180Y-147124687D02*
X74943847Y-147124687D01*
X74943847Y-147124687D02*
X74943847Y-147315163D01*
X75372419Y-146696115D02*
X74372419Y-146696115D01*
X74372419Y-146696115D02*
X75372419Y-146124687D01*
X75372419Y-146124687D02*
X74372419Y-146124687D01*
X75372419Y-145648496D02*
X74372419Y-145648496D01*
X74372419Y-145648496D02*
X74372419Y-145410401D01*
X74372419Y-145410401D02*
X74420038Y-145267544D01*
X74420038Y-145267544D02*
X74515276Y-145172306D01*
X74515276Y-145172306D02*
X74610514Y-145124687D01*
X74610514Y-145124687D02*
X74800990Y-145077068D01*
X74800990Y-145077068D02*
X74943847Y-145077068D01*
X74943847Y-145077068D02*
X75134323Y-145124687D01*
X75134323Y-145124687D02*
X75229561Y-145172306D01*
X75229561Y-145172306D02*
X75324800Y-145267544D01*
X75324800Y-145267544D02*
X75372419Y-145410401D01*
X75372419Y-145410401D02*
X75372419Y-145648496D01*
X110412419Y-93219925D02*
X110412419Y-93696115D01*
X110412419Y-93696115D02*
X110888609Y-93743734D01*
X110888609Y-93743734D02*
X110840990Y-93696115D01*
X110840990Y-93696115D02*
X110793371Y-93600877D01*
X110793371Y-93600877D02*
X110793371Y-93362782D01*
X110793371Y-93362782D02*
X110840990Y-93267544D01*
X110840990Y-93267544D02*
X110888609Y-93219925D01*
X110888609Y-93219925D02*
X110983847Y-93172306D01*
X110983847Y-93172306D02*
X111221942Y-93172306D01*
X111221942Y-93172306D02*
X111317180Y-93219925D01*
X111317180Y-93219925D02*
X111364800Y-93267544D01*
X111364800Y-93267544D02*
X111412419Y-93362782D01*
X111412419Y-93362782D02*
X111412419Y-93600877D01*
X111412419Y-93600877D02*
X111364800Y-93696115D01*
X111364800Y-93696115D02*
X111317180Y-93743734D01*
X110412419Y-92886591D02*
X111412419Y-92553258D01*
X111412419Y-92553258D02*
X110412419Y-92219925D01*
X56372419Y-109259925D02*
X56372419Y-109736115D01*
X56372419Y-109736115D02*
X56848609Y-109783734D01*
X56848609Y-109783734D02*
X56800990Y-109736115D01*
X56800990Y-109736115D02*
X56753371Y-109640877D01*
X56753371Y-109640877D02*
X56753371Y-109402782D01*
X56753371Y-109402782D02*
X56800990Y-109307544D01*
X56800990Y-109307544D02*
X56848609Y-109259925D01*
X56848609Y-109259925D02*
X56943847Y-109212306D01*
X56943847Y-109212306D02*
X57181942Y-109212306D01*
X57181942Y-109212306D02*
X57277180Y-109259925D01*
X57277180Y-109259925D02*
X57324800Y-109307544D01*
X57324800Y-109307544D02*
X57372419Y-109402782D01*
X57372419Y-109402782D02*
X57372419Y-109640877D01*
X57372419Y-109640877D02*
X57324800Y-109736115D01*
X57324800Y-109736115D02*
X57277180Y-109783734D01*
X56372419Y-108926591D02*
X57372419Y-108593258D01*
X57372419Y-108593258D02*
X56372419Y-108259925D01*
X69920038Y-104212306D02*
X69872419Y-104307544D01*
X69872419Y-104307544D02*
X69872419Y-104450401D01*
X69872419Y-104450401D02*
X69920038Y-104593258D01*
X69920038Y-104593258D02*
X70015276Y-104688496D01*
X70015276Y-104688496D02*
X70110514Y-104736115D01*
X70110514Y-104736115D02*
X70300990Y-104783734D01*
X70300990Y-104783734D02*
X70443847Y-104783734D01*
X70443847Y-104783734D02*
X70634323Y-104736115D01*
X70634323Y-104736115D02*
X70729561Y-104688496D01*
X70729561Y-104688496D02*
X70824800Y-104593258D01*
X70824800Y-104593258D02*
X70872419Y-104450401D01*
X70872419Y-104450401D02*
X70872419Y-104355163D01*
X70872419Y-104355163D02*
X70824800Y-104212306D01*
X70824800Y-104212306D02*
X70777180Y-104164687D01*
X70777180Y-104164687D02*
X70443847Y-104164687D01*
X70443847Y-104164687D02*
X70443847Y-104355163D01*
X70872419Y-103736115D02*
X69872419Y-103736115D01*
X69872419Y-103736115D02*
X70872419Y-103164687D01*
X70872419Y-103164687D02*
X69872419Y-103164687D01*
X70872419Y-102688496D02*
X69872419Y-102688496D01*
X69872419Y-102688496D02*
X69872419Y-102450401D01*
X69872419Y-102450401D02*
X69920038Y-102307544D01*
X69920038Y-102307544D02*
X70015276Y-102212306D01*
X70015276Y-102212306D02*
X70110514Y-102164687D01*
X70110514Y-102164687D02*
X70300990Y-102117068D01*
X70300990Y-102117068D02*
X70443847Y-102117068D01*
X70443847Y-102117068D02*
X70634323Y-102164687D01*
X70634323Y-102164687D02*
X70729561Y-102212306D01*
X70729561Y-102212306D02*
X70824800Y-102307544D01*
X70824800Y-102307544D02*
X70872419Y-102450401D01*
X70872419Y-102450401D02*
X70872419Y-102688496D01*
X69872419Y-109259925D02*
X69872419Y-109736115D01*
X69872419Y-109736115D02*
X70348609Y-109783734D01*
X70348609Y-109783734D02*
X70300990Y-109736115D01*
X70300990Y-109736115D02*
X70253371Y-109640877D01*
X70253371Y-109640877D02*
X70253371Y-109402782D01*
X70253371Y-109402782D02*
X70300990Y-109307544D01*
X70300990Y-109307544D02*
X70348609Y-109259925D01*
X70348609Y-109259925D02*
X70443847Y-109212306D01*
X70443847Y-109212306D02*
X70681942Y-109212306D01*
X70681942Y-109212306D02*
X70777180Y-109259925D01*
X70777180Y-109259925D02*
X70824800Y-109307544D01*
X70824800Y-109307544D02*
X70872419Y-109402782D01*
X70872419Y-109402782D02*
X70872419Y-109640877D01*
X70872419Y-109640877D02*
X70824800Y-109736115D01*
X70824800Y-109736115D02*
X70777180Y-109783734D01*
X69872419Y-108926591D02*
X70872419Y-108593258D01*
X70872419Y-108593258D02*
X69872419Y-108259925D01*
X123375312Y-129277180D02*
X123327693Y-129324800D01*
X123327693Y-129324800D02*
X123184836Y-129372419D01*
X123184836Y-129372419D02*
X123089598Y-129372419D01*
X123089598Y-129372419D02*
X122946741Y-129324800D01*
X122946741Y-129324800D02*
X122851503Y-129229561D01*
X122851503Y-129229561D02*
X122803884Y-129134323D01*
X122803884Y-129134323D02*
X122756265Y-128943847D01*
X122756265Y-128943847D02*
X122756265Y-128800990D01*
X122756265Y-128800990D02*
X122803884Y-128610514D01*
X122803884Y-128610514D02*
X122851503Y-128515276D01*
X122851503Y-128515276D02*
X122946741Y-128420038D01*
X122946741Y-128420038D02*
X123089598Y-128372419D01*
X123089598Y-128372419D02*
X123184836Y-128372419D01*
X123184836Y-128372419D02*
X123327693Y-128420038D01*
X123327693Y-128420038D02*
X123375312Y-128467657D01*
X123756265Y-129324800D02*
X123899122Y-129372419D01*
X123899122Y-129372419D02*
X124137217Y-129372419D01*
X124137217Y-129372419D02*
X124232455Y-129324800D01*
X124232455Y-129324800D02*
X124280074Y-129277180D01*
X124280074Y-129277180D02*
X124327693Y-129181942D01*
X124327693Y-129181942D02*
X124327693Y-129086704D01*
X124327693Y-129086704D02*
X124280074Y-128991466D01*
X124280074Y-128991466D02*
X124232455Y-128943847D01*
X124232455Y-128943847D02*
X124137217Y-128896228D01*
X124137217Y-128896228D02*
X123946741Y-128848609D01*
X123946741Y-128848609D02*
X123851503Y-128800990D01*
X123851503Y-128800990D02*
X123803884Y-128753371D01*
X123803884Y-128753371D02*
X123756265Y-128658133D01*
X123756265Y-128658133D02*
X123756265Y-128562895D01*
X123756265Y-128562895D02*
X123803884Y-128467657D01*
X123803884Y-128467657D02*
X123851503Y-128420038D01*
X123851503Y-128420038D02*
X123946741Y-128372419D01*
X123946741Y-128372419D02*
X124184836Y-128372419D01*
X124184836Y-128372419D02*
X124327693Y-128420038D01*
X122756265Y-131824800D02*
X122899122Y-131872419D01*
X122899122Y-131872419D02*
X123137217Y-131872419D01*
X123137217Y-131872419D02*
X123232455Y-131824800D01*
X123232455Y-131824800D02*
X123280074Y-131777180D01*
X123280074Y-131777180D02*
X123327693Y-131681942D01*
X123327693Y-131681942D02*
X123327693Y-131586704D01*
X123327693Y-131586704D02*
X123280074Y-131491466D01*
X123280074Y-131491466D02*
X123232455Y-131443847D01*
X123232455Y-131443847D02*
X123137217Y-131396228D01*
X123137217Y-131396228D02*
X122946741Y-131348609D01*
X122946741Y-131348609D02*
X122851503Y-131300990D01*
X122851503Y-131300990D02*
X122803884Y-131253371D01*
X122803884Y-131253371D02*
X122756265Y-131158133D01*
X122756265Y-131158133D02*
X122756265Y-131062895D01*
X122756265Y-131062895D02*
X122803884Y-130967657D01*
X122803884Y-130967657D02*
X122851503Y-130920038D01*
X122851503Y-130920038D02*
X122946741Y-130872419D01*
X122946741Y-130872419D02*
X123184836Y-130872419D01*
X123184836Y-130872419D02*
X123327693Y-130920038D01*
X124327693Y-131777180D02*
X124280074Y-131824800D01*
X124280074Y-131824800D02*
X124137217Y-131872419D01*
X124137217Y-131872419D02*
X124041979Y-131872419D01*
X124041979Y-131872419D02*
X123899122Y-131824800D01*
X123899122Y-131824800D02*
X123803884Y-131729561D01*
X123803884Y-131729561D02*
X123756265Y-131634323D01*
X123756265Y-131634323D02*
X123708646Y-131443847D01*
X123708646Y-131443847D02*
X123708646Y-131300990D01*
X123708646Y-131300990D02*
X123756265Y-131110514D01*
X123756265Y-131110514D02*
X123803884Y-131015276D01*
X123803884Y-131015276D02*
X123899122Y-130920038D01*
X123899122Y-130920038D02*
X124041979Y-130872419D01*
X124041979Y-130872419D02*
X124137217Y-130872419D01*
X124137217Y-130872419D02*
X124280074Y-130920038D01*
X124280074Y-130920038D02*
X124327693Y-130967657D01*
X124756265Y-131872419D02*
X124756265Y-130872419D01*
X125327693Y-131872419D02*
X124899122Y-131300990D01*
X125327693Y-130872419D02*
X124756265Y-131443847D01*
X56920038Y-143172306D02*
X56872419Y-143267544D01*
X56872419Y-143267544D02*
X56872419Y-143410401D01*
X56872419Y-143410401D02*
X56920038Y-143553258D01*
X56920038Y-143553258D02*
X57015276Y-143648496D01*
X57015276Y-143648496D02*
X57110514Y-143696115D01*
X57110514Y-143696115D02*
X57300990Y-143743734D01*
X57300990Y-143743734D02*
X57443847Y-143743734D01*
X57443847Y-143743734D02*
X57634323Y-143696115D01*
X57634323Y-143696115D02*
X57729561Y-143648496D01*
X57729561Y-143648496D02*
X57824800Y-143553258D01*
X57824800Y-143553258D02*
X57872419Y-143410401D01*
X57872419Y-143410401D02*
X57872419Y-143315163D01*
X57872419Y-143315163D02*
X57824800Y-143172306D01*
X57824800Y-143172306D02*
X57777180Y-143124687D01*
X57777180Y-143124687D02*
X57443847Y-143124687D01*
X57443847Y-143124687D02*
X57443847Y-143315163D01*
X57872419Y-142696115D02*
X56872419Y-142696115D01*
X56872419Y-142696115D02*
X57872419Y-142124687D01*
X57872419Y-142124687D02*
X56872419Y-142124687D01*
X57872419Y-141648496D02*
X56872419Y-141648496D01*
X56872419Y-141648496D02*
X56872419Y-141410401D01*
X56872419Y-141410401D02*
X56920038Y-141267544D01*
X56920038Y-141267544D02*
X57015276Y-141172306D01*
X57015276Y-141172306D02*
X57110514Y-141124687D01*
X57110514Y-141124687D02*
X57300990Y-141077068D01*
X57300990Y-141077068D02*
X57443847Y-141077068D01*
X57443847Y-141077068D02*
X57634323Y-141124687D01*
X57634323Y-141124687D02*
X57729561Y-141172306D01*
X57729561Y-141172306D02*
X57824800Y-141267544D01*
X57824800Y-141267544D02*
X57872419Y-141410401D01*
X57872419Y-141410401D02*
X57872419Y-141648496D01*
X56872419Y-157719925D02*
X56872419Y-158196115D01*
X56872419Y-158196115D02*
X57348609Y-158243734D01*
X57348609Y-158243734D02*
X57300990Y-158196115D01*
X57300990Y-158196115D02*
X57253371Y-158100877D01*
X57253371Y-158100877D02*
X57253371Y-157862782D01*
X57253371Y-157862782D02*
X57300990Y-157767544D01*
X57300990Y-157767544D02*
X57348609Y-157719925D01*
X57348609Y-157719925D02*
X57443847Y-157672306D01*
X57443847Y-157672306D02*
X57681942Y-157672306D01*
X57681942Y-157672306D02*
X57777180Y-157719925D01*
X57777180Y-157719925D02*
X57824800Y-157767544D01*
X57824800Y-157767544D02*
X57872419Y-157862782D01*
X57872419Y-157862782D02*
X57872419Y-158100877D01*
X57872419Y-158100877D02*
X57824800Y-158196115D01*
X57824800Y-158196115D02*
X57777180Y-158243734D01*
X56872419Y-157386591D02*
X57872419Y-157053258D01*
X57872419Y-157053258D02*
X56872419Y-156719925D01*
X56420038Y-104212306D02*
X56372419Y-104307544D01*
X56372419Y-104307544D02*
X56372419Y-104450401D01*
X56372419Y-104450401D02*
X56420038Y-104593258D01*
X56420038Y-104593258D02*
X56515276Y-104688496D01*
X56515276Y-104688496D02*
X56610514Y-104736115D01*
X56610514Y-104736115D02*
X56800990Y-104783734D01*
X56800990Y-104783734D02*
X56943847Y-104783734D01*
X56943847Y-104783734D02*
X57134323Y-104736115D01*
X57134323Y-104736115D02*
X57229561Y-104688496D01*
X57229561Y-104688496D02*
X57324800Y-104593258D01*
X57324800Y-104593258D02*
X57372419Y-104450401D01*
X57372419Y-104450401D02*
X57372419Y-104355163D01*
X57372419Y-104355163D02*
X57324800Y-104212306D01*
X57324800Y-104212306D02*
X57277180Y-104164687D01*
X57277180Y-104164687D02*
X56943847Y-104164687D01*
X56943847Y-104164687D02*
X56943847Y-104355163D01*
X57372419Y-103736115D02*
X56372419Y-103736115D01*
X56372419Y-103736115D02*
X57372419Y-103164687D01*
X57372419Y-103164687D02*
X56372419Y-103164687D01*
X57372419Y-102688496D02*
X56372419Y-102688496D01*
X56372419Y-102688496D02*
X56372419Y-102450401D01*
X56372419Y-102450401D02*
X56420038Y-102307544D01*
X56420038Y-102307544D02*
X56515276Y-102212306D01*
X56515276Y-102212306D02*
X56610514Y-102164687D01*
X56610514Y-102164687D02*
X56800990Y-102117068D01*
X56800990Y-102117068D02*
X56943847Y-102117068D01*
X56943847Y-102117068D02*
X57134323Y-102164687D01*
X57134323Y-102164687D02*
X57229561Y-102212306D01*
X57229561Y-102212306D02*
X57324800Y-102307544D01*
X57324800Y-102307544D02*
X57372419Y-102450401D01*
X57372419Y-102450401D02*
X57372419Y-102688496D01*
X100756265Y-74824800D02*
X100899122Y-74872419D01*
X100899122Y-74872419D02*
X101137217Y-74872419D01*
X101137217Y-74872419D02*
X101232455Y-74824800D01*
X101232455Y-74824800D02*
X101280074Y-74777180D01*
X101280074Y-74777180D02*
X101327693Y-74681942D01*
X101327693Y-74681942D02*
X101327693Y-74586704D01*
X101327693Y-74586704D02*
X101280074Y-74491466D01*
X101280074Y-74491466D02*
X101232455Y-74443847D01*
X101232455Y-74443847D02*
X101137217Y-74396228D01*
X101137217Y-74396228D02*
X100946741Y-74348609D01*
X100946741Y-74348609D02*
X100851503Y-74300990D01*
X100851503Y-74300990D02*
X100803884Y-74253371D01*
X100803884Y-74253371D02*
X100756265Y-74158133D01*
X100756265Y-74158133D02*
X100756265Y-74062895D01*
X100756265Y-74062895D02*
X100803884Y-73967657D01*
X100803884Y-73967657D02*
X100851503Y-73920038D01*
X100851503Y-73920038D02*
X100946741Y-73872419D01*
X100946741Y-73872419D02*
X101184836Y-73872419D01*
X101184836Y-73872419D02*
X101327693Y-73920038D01*
X101756265Y-74872419D02*
X101756265Y-73872419D01*
X101756265Y-73872419D02*
X101994360Y-73872419D01*
X101994360Y-73872419D02*
X102137217Y-73920038D01*
X102137217Y-73920038D02*
X102232455Y-74015276D01*
X102232455Y-74015276D02*
X102280074Y-74110514D01*
X102280074Y-74110514D02*
X102327693Y-74300990D01*
X102327693Y-74300990D02*
X102327693Y-74443847D01*
X102327693Y-74443847D02*
X102280074Y-74634323D01*
X102280074Y-74634323D02*
X102232455Y-74729561D01*
X102232455Y-74729561D02*
X102137217Y-74824800D01*
X102137217Y-74824800D02*
X101994360Y-74872419D01*
X101994360Y-74872419D02*
X101756265Y-74872419D01*
X102708646Y-74586704D02*
X103184836Y-74586704D01*
X102613408Y-74872419D02*
X102946741Y-73872419D01*
X102946741Y-73872419D02*
X103280074Y-74872419D01*
X107960038Y-93172306D02*
X107912419Y-93267544D01*
X107912419Y-93267544D02*
X107912419Y-93410401D01*
X107912419Y-93410401D02*
X107960038Y-93553258D01*
X107960038Y-93553258D02*
X108055276Y-93648496D01*
X108055276Y-93648496D02*
X108150514Y-93696115D01*
X108150514Y-93696115D02*
X108340990Y-93743734D01*
X108340990Y-93743734D02*
X108483847Y-93743734D01*
X108483847Y-93743734D02*
X108674323Y-93696115D01*
X108674323Y-93696115D02*
X108769561Y-93648496D01*
X108769561Y-93648496D02*
X108864800Y-93553258D01*
X108864800Y-93553258D02*
X108912419Y-93410401D01*
X108912419Y-93410401D02*
X108912419Y-93315163D01*
X108912419Y-93315163D02*
X108864800Y-93172306D01*
X108864800Y-93172306D02*
X108817180Y-93124687D01*
X108817180Y-93124687D02*
X108483847Y-93124687D01*
X108483847Y-93124687D02*
X108483847Y-93315163D01*
X108912419Y-92696115D02*
X107912419Y-92696115D01*
X107912419Y-92696115D02*
X108912419Y-92124687D01*
X108912419Y-92124687D02*
X107912419Y-92124687D01*
X108912419Y-91648496D02*
X107912419Y-91648496D01*
X107912419Y-91648496D02*
X107912419Y-91410401D01*
X107912419Y-91410401D02*
X107960038Y-91267544D01*
X107960038Y-91267544D02*
X108055276Y-91172306D01*
X108055276Y-91172306D02*
X108150514Y-91124687D01*
X108150514Y-91124687D02*
X108340990Y-91077068D01*
X108340990Y-91077068D02*
X108483847Y-91077068D01*
X108483847Y-91077068D02*
X108674323Y-91124687D01*
X108674323Y-91124687D02*
X108769561Y-91172306D01*
X108769561Y-91172306D02*
X108864800Y-91267544D01*
X108864800Y-91267544D02*
X108912419Y-91410401D01*
X108912419Y-91410401D02*
X108912419Y-91648496D01*
X100756265Y-77324800D02*
X100899122Y-77372419D01*
X100899122Y-77372419D02*
X101137217Y-77372419D01*
X101137217Y-77372419D02*
X101232455Y-77324800D01*
X101232455Y-77324800D02*
X101280074Y-77277180D01*
X101280074Y-77277180D02*
X101327693Y-77181942D01*
X101327693Y-77181942D02*
X101327693Y-77086704D01*
X101327693Y-77086704D02*
X101280074Y-76991466D01*
X101280074Y-76991466D02*
X101232455Y-76943847D01*
X101232455Y-76943847D02*
X101137217Y-76896228D01*
X101137217Y-76896228D02*
X100946741Y-76848609D01*
X100946741Y-76848609D02*
X100851503Y-76800990D01*
X100851503Y-76800990D02*
X100803884Y-76753371D01*
X100803884Y-76753371D02*
X100756265Y-76658133D01*
X100756265Y-76658133D02*
X100756265Y-76562895D01*
X100756265Y-76562895D02*
X100803884Y-76467657D01*
X100803884Y-76467657D02*
X100851503Y-76420038D01*
X100851503Y-76420038D02*
X100946741Y-76372419D01*
X100946741Y-76372419D02*
X101184836Y-76372419D01*
X101184836Y-76372419D02*
X101327693Y-76420038D01*
X102327693Y-77277180D02*
X102280074Y-77324800D01*
X102280074Y-77324800D02*
X102137217Y-77372419D01*
X102137217Y-77372419D02*
X102041979Y-77372419D01*
X102041979Y-77372419D02*
X101899122Y-77324800D01*
X101899122Y-77324800D02*
X101803884Y-77229561D01*
X101803884Y-77229561D02*
X101756265Y-77134323D01*
X101756265Y-77134323D02*
X101708646Y-76943847D01*
X101708646Y-76943847D02*
X101708646Y-76800990D01*
X101708646Y-76800990D02*
X101756265Y-76610514D01*
X101756265Y-76610514D02*
X101803884Y-76515276D01*
X101803884Y-76515276D02*
X101899122Y-76420038D01*
X101899122Y-76420038D02*
X102041979Y-76372419D01*
X102041979Y-76372419D02*
X102137217Y-76372419D01*
X102137217Y-76372419D02*
X102280074Y-76420038D01*
X102280074Y-76420038D02*
X102327693Y-76467657D01*
X103232455Y-77372419D02*
X102756265Y-77372419D01*
X102756265Y-77372419D02*
X102756265Y-76372419D01*
X122803884Y-137372419D02*
X122803884Y-136372419D01*
X122803884Y-136372419D02*
X123137217Y-137086704D01*
X123137217Y-137086704D02*
X123470550Y-136372419D01*
X123470550Y-136372419D02*
X123470550Y-137372419D01*
X123946741Y-137372419D02*
X123946741Y-136372419D01*
X124375312Y-137324800D02*
X124518169Y-137372419D01*
X124518169Y-137372419D02*
X124756264Y-137372419D01*
X124756264Y-137372419D02*
X124851502Y-137324800D01*
X124851502Y-137324800D02*
X124899121Y-137277180D01*
X124899121Y-137277180D02*
X124946740Y-137181942D01*
X124946740Y-137181942D02*
X124946740Y-137086704D01*
X124946740Y-137086704D02*
X124899121Y-136991466D01*
X124899121Y-136991466D02*
X124851502Y-136943847D01*
X124851502Y-136943847D02*
X124756264Y-136896228D01*
X124756264Y-136896228D02*
X124565788Y-136848609D01*
X124565788Y-136848609D02*
X124470550Y-136800990D01*
X124470550Y-136800990D02*
X124422931Y-136753371D01*
X124422931Y-136753371D02*
X124375312Y-136658133D01*
X124375312Y-136658133D02*
X124375312Y-136562895D01*
X124375312Y-136562895D02*
X124422931Y-136467657D01*
X124422931Y-136467657D02*
X124470550Y-136420038D01*
X124470550Y-136420038D02*
X124565788Y-136372419D01*
X124565788Y-136372419D02*
X124803883Y-136372419D01*
X124803883Y-136372419D02*
X124946740Y-136420038D01*
X125565788Y-136372419D02*
X125756264Y-136372419D01*
X125756264Y-136372419D02*
X125851502Y-136420038D01*
X125851502Y-136420038D02*
X125946740Y-136515276D01*
X125946740Y-136515276D02*
X125994359Y-136705752D01*
X125994359Y-136705752D02*
X125994359Y-137039085D01*
X125994359Y-137039085D02*
X125946740Y-137229561D01*
X125946740Y-137229561D02*
X125851502Y-137324800D01*
X125851502Y-137324800D02*
X125756264Y-137372419D01*
X125756264Y-137372419D02*
X125565788Y-137372419D01*
X125565788Y-137372419D02*
X125470550Y-137324800D01*
X125470550Y-137324800D02*
X125375312Y-137229561D01*
X125375312Y-137229561D02*
X125327693Y-137039085D01*
X125327693Y-137039085D02*
X125327693Y-136705752D01*
X125327693Y-136705752D02*
X125375312Y-136515276D01*
X125375312Y-136515276D02*
X125470550Y-136420038D01*
X125470550Y-136420038D02*
X125565788Y-136372419D01*
X103364800Y-93743734D02*
X103412419Y-93600877D01*
X103412419Y-93600877D02*
X103412419Y-93362782D01*
X103412419Y-93362782D02*
X103364800Y-93267544D01*
X103364800Y-93267544D02*
X103317180Y-93219925D01*
X103317180Y-93219925D02*
X103221942Y-93172306D01*
X103221942Y-93172306D02*
X103126704Y-93172306D01*
X103126704Y-93172306D02*
X103031466Y-93219925D01*
X103031466Y-93219925D02*
X102983847Y-93267544D01*
X102983847Y-93267544D02*
X102936228Y-93362782D01*
X102936228Y-93362782D02*
X102888609Y-93553258D01*
X102888609Y-93553258D02*
X102840990Y-93648496D01*
X102840990Y-93648496D02*
X102793371Y-93696115D01*
X102793371Y-93696115D02*
X102698133Y-93743734D01*
X102698133Y-93743734D02*
X102602895Y-93743734D01*
X102602895Y-93743734D02*
X102507657Y-93696115D01*
X102507657Y-93696115D02*
X102460038Y-93648496D01*
X102460038Y-93648496D02*
X102412419Y-93553258D01*
X102412419Y-93553258D02*
X102412419Y-93315163D01*
X102412419Y-93315163D02*
X102460038Y-93172306D01*
X103317180Y-92172306D02*
X103364800Y-92219925D01*
X103364800Y-92219925D02*
X103412419Y-92362782D01*
X103412419Y-92362782D02*
X103412419Y-92458020D01*
X103412419Y-92458020D02*
X103364800Y-92600877D01*
X103364800Y-92600877D02*
X103269561Y-92696115D01*
X103269561Y-92696115D02*
X103174323Y-92743734D01*
X103174323Y-92743734D02*
X102983847Y-92791353D01*
X102983847Y-92791353D02*
X102840990Y-92791353D01*
X102840990Y-92791353D02*
X102650514Y-92743734D01*
X102650514Y-92743734D02*
X102555276Y-92696115D01*
X102555276Y-92696115D02*
X102460038Y-92600877D01*
X102460038Y-92600877D02*
X102412419Y-92458020D01*
X102412419Y-92458020D02*
X102412419Y-92362782D01*
X102412419Y-92362782D02*
X102460038Y-92219925D01*
X102460038Y-92219925D02*
X102507657Y-92172306D01*
X103412419Y-91267544D02*
X103412419Y-91743734D01*
X103412419Y-91743734D02*
X102412419Y-91743734D01*
X74372419Y-152719925D02*
X74372419Y-153196115D01*
X74372419Y-153196115D02*
X74848609Y-153243734D01*
X74848609Y-153243734D02*
X74800990Y-153196115D01*
X74800990Y-153196115D02*
X74753371Y-153100877D01*
X74753371Y-153100877D02*
X74753371Y-152862782D01*
X74753371Y-152862782D02*
X74800990Y-152767544D01*
X74800990Y-152767544D02*
X74848609Y-152719925D01*
X74848609Y-152719925D02*
X74943847Y-152672306D01*
X74943847Y-152672306D02*
X75181942Y-152672306D01*
X75181942Y-152672306D02*
X75277180Y-152719925D01*
X75277180Y-152719925D02*
X75324800Y-152767544D01*
X75324800Y-152767544D02*
X75372419Y-152862782D01*
X75372419Y-152862782D02*
X75372419Y-153100877D01*
X75372419Y-153100877D02*
X75324800Y-153196115D01*
X75324800Y-153196115D02*
X75277180Y-153243734D01*
X74372419Y-152386591D02*
X75372419Y-152053258D01*
X75372419Y-152053258D02*
X74372419Y-151719925D01*
X101872419Y-152719925D02*
X101872419Y-153196115D01*
X101872419Y-153196115D02*
X102348609Y-153243734D01*
X102348609Y-153243734D02*
X102300990Y-153196115D01*
X102300990Y-153196115D02*
X102253371Y-153100877D01*
X102253371Y-153100877D02*
X102253371Y-152862782D01*
X102253371Y-152862782D02*
X102300990Y-152767544D01*
X102300990Y-152767544D02*
X102348609Y-152719925D01*
X102348609Y-152719925D02*
X102443847Y-152672306D01*
X102443847Y-152672306D02*
X102681942Y-152672306D01*
X102681942Y-152672306D02*
X102777180Y-152719925D01*
X102777180Y-152719925D02*
X102824800Y-152767544D01*
X102824800Y-152767544D02*
X102872419Y-152862782D01*
X102872419Y-152862782D02*
X102872419Y-153100877D01*
X102872419Y-153100877D02*
X102824800Y-153196115D01*
X102824800Y-153196115D02*
X102777180Y-153243734D01*
X101872419Y-152386591D02*
X102872419Y-152053258D01*
X102872419Y-152053258D02*
X101872419Y-151719925D01*
X123280074Y-138872419D02*
X122803884Y-138872419D01*
X122803884Y-138872419D02*
X122756265Y-139348609D01*
X122756265Y-139348609D02*
X122803884Y-139300990D01*
X122803884Y-139300990D02*
X122899122Y-139253371D01*
X122899122Y-139253371D02*
X123137217Y-139253371D01*
X123137217Y-139253371D02*
X123232455Y-139300990D01*
X123232455Y-139300990D02*
X123280074Y-139348609D01*
X123280074Y-139348609D02*
X123327693Y-139443847D01*
X123327693Y-139443847D02*
X123327693Y-139681942D01*
X123327693Y-139681942D02*
X123280074Y-139777180D01*
X123280074Y-139777180D02*
X123232455Y-139824800D01*
X123232455Y-139824800D02*
X123137217Y-139872419D01*
X123137217Y-139872419D02*
X122899122Y-139872419D01*
X122899122Y-139872419D02*
X122803884Y-139824800D01*
X122803884Y-139824800D02*
X122756265Y-139777180D01*
X123613408Y-138872419D02*
X123946741Y-139872419D01*
X123946741Y-139872419D02*
X124280074Y-138872419D01*
X101920038Y-147672306D02*
X101872419Y-147767544D01*
X101872419Y-147767544D02*
X101872419Y-147910401D01*
X101872419Y-147910401D02*
X101920038Y-148053258D01*
X101920038Y-148053258D02*
X102015276Y-148148496D01*
X102015276Y-148148496D02*
X102110514Y-148196115D01*
X102110514Y-148196115D02*
X102300990Y-148243734D01*
X102300990Y-148243734D02*
X102443847Y-148243734D01*
X102443847Y-148243734D02*
X102634323Y-148196115D01*
X102634323Y-148196115D02*
X102729561Y-148148496D01*
X102729561Y-148148496D02*
X102824800Y-148053258D01*
X102824800Y-148053258D02*
X102872419Y-147910401D01*
X102872419Y-147910401D02*
X102872419Y-147815163D01*
X102872419Y-147815163D02*
X102824800Y-147672306D01*
X102824800Y-147672306D02*
X102777180Y-147624687D01*
X102777180Y-147624687D02*
X102443847Y-147624687D01*
X102443847Y-147624687D02*
X102443847Y-147815163D01*
X102872419Y-147196115D02*
X101872419Y-147196115D01*
X101872419Y-147196115D02*
X102872419Y-146624687D01*
X102872419Y-146624687D02*
X101872419Y-146624687D01*
X102872419Y-146148496D02*
X101872419Y-146148496D01*
X101872419Y-146148496D02*
X101872419Y-145910401D01*
X101872419Y-145910401D02*
X101920038Y-145767544D01*
X101920038Y-145767544D02*
X102015276Y-145672306D01*
X102015276Y-145672306D02*
X102110514Y-145624687D01*
X102110514Y-145624687D02*
X102300990Y-145577068D01*
X102300990Y-145577068D02*
X102443847Y-145577068D01*
X102443847Y-145577068D02*
X102634323Y-145624687D01*
X102634323Y-145624687D02*
X102729561Y-145672306D01*
X102729561Y-145672306D02*
X102824800Y-145767544D01*
X102824800Y-145767544D02*
X102872419Y-145910401D01*
X102872419Y-145910401D02*
X102872419Y-146148496D01*
X123327693Y-141420038D02*
X123232455Y-141372419D01*
X123232455Y-141372419D02*
X123089598Y-141372419D01*
X123089598Y-141372419D02*
X122946741Y-141420038D01*
X122946741Y-141420038D02*
X122851503Y-141515276D01*
X122851503Y-141515276D02*
X122803884Y-141610514D01*
X122803884Y-141610514D02*
X122756265Y-141800990D01*
X122756265Y-141800990D02*
X122756265Y-141943847D01*
X122756265Y-141943847D02*
X122803884Y-142134323D01*
X122803884Y-142134323D02*
X122851503Y-142229561D01*
X122851503Y-142229561D02*
X122946741Y-142324800D01*
X122946741Y-142324800D02*
X123089598Y-142372419D01*
X123089598Y-142372419D02*
X123184836Y-142372419D01*
X123184836Y-142372419D02*
X123327693Y-142324800D01*
X123327693Y-142324800D02*
X123375312Y-142277180D01*
X123375312Y-142277180D02*
X123375312Y-141943847D01*
X123375312Y-141943847D02*
X123184836Y-141943847D01*
X123803884Y-142372419D02*
X123803884Y-141372419D01*
X123803884Y-141372419D02*
X124375312Y-142372419D01*
X124375312Y-142372419D02*
X124375312Y-141372419D01*
X124851503Y-142372419D02*
X124851503Y-141372419D01*
X124851503Y-141372419D02*
X125089598Y-141372419D01*
X125089598Y-141372419D02*
X125232455Y-141420038D01*
X125232455Y-141420038D02*
X125327693Y-141515276D01*
X125327693Y-141515276D02*
X125375312Y-141610514D01*
X125375312Y-141610514D02*
X125422931Y-141800990D01*
X125422931Y-141800990D02*
X125422931Y-141943847D01*
X125422931Y-141943847D02*
X125375312Y-142134323D01*
X125375312Y-142134323D02*
X125327693Y-142229561D01*
X125327693Y-142229561D02*
X125232455Y-142324800D01*
X125232455Y-142324800D02*
X125089598Y-142372419D01*
X125089598Y-142372419D02*
X124851503Y-142372419D01*
X101327693Y-66420038D02*
X101232455Y-66372419D01*
X101232455Y-66372419D02*
X101089598Y-66372419D01*
X101089598Y-66372419D02*
X100946741Y-66420038D01*
X100946741Y-66420038D02*
X100851503Y-66515276D01*
X100851503Y-66515276D02*
X100803884Y-66610514D01*
X100803884Y-66610514D02*
X100756265Y-66800990D01*
X100756265Y-66800990D02*
X100756265Y-66943847D01*
X100756265Y-66943847D02*
X100803884Y-67134323D01*
X100803884Y-67134323D02*
X100851503Y-67229561D01*
X100851503Y-67229561D02*
X100946741Y-67324800D01*
X100946741Y-67324800D02*
X101089598Y-67372419D01*
X101089598Y-67372419D02*
X101184836Y-67372419D01*
X101184836Y-67372419D02*
X101327693Y-67324800D01*
X101327693Y-67324800D02*
X101375312Y-67277180D01*
X101375312Y-67277180D02*
X101375312Y-66943847D01*
X101375312Y-66943847D02*
X101184836Y-66943847D01*
X101803884Y-67372419D02*
X101803884Y-66372419D01*
X101803884Y-66372419D02*
X102375312Y-67372419D01*
X102375312Y-67372419D02*
X102375312Y-66372419D01*
X102851503Y-67372419D02*
X102851503Y-66372419D01*
X102851503Y-66372419D02*
X103089598Y-66372419D01*
X103089598Y-66372419D02*
X103232455Y-66420038D01*
X103232455Y-66420038D02*
X103327693Y-66515276D01*
X103327693Y-66515276D02*
X103375312Y-66610514D01*
X103375312Y-66610514D02*
X103422931Y-66800990D01*
X103422931Y-66800990D02*
X103422931Y-66943847D01*
X103422931Y-66943847D02*
X103375312Y-67134323D01*
X103375312Y-67134323D02*
X103327693Y-67229561D01*
X103327693Y-67229561D02*
X103232455Y-67324800D01*
X103232455Y-67324800D02*
X103089598Y-67372419D01*
X103089598Y-67372419D02*
X102851503Y-67372419D01*
X101280074Y-63372419D02*
X100803884Y-63372419D01*
X100803884Y-63372419D02*
X100756265Y-63848609D01*
X100756265Y-63848609D02*
X100803884Y-63800990D01*
X100803884Y-63800990D02*
X100899122Y-63753371D01*
X100899122Y-63753371D02*
X101137217Y-63753371D01*
X101137217Y-63753371D02*
X101232455Y-63800990D01*
X101232455Y-63800990D02*
X101280074Y-63848609D01*
X101280074Y-63848609D02*
X101327693Y-63943847D01*
X101327693Y-63943847D02*
X101327693Y-64181942D01*
X101327693Y-64181942D02*
X101280074Y-64277180D01*
X101280074Y-64277180D02*
X101232455Y-64324800D01*
X101232455Y-64324800D02*
X101137217Y-64372419D01*
X101137217Y-64372419D02*
X100899122Y-64372419D01*
X100899122Y-64372419D02*
X100803884Y-64324800D01*
X100803884Y-64324800D02*
X100756265Y-64277180D01*
X101613408Y-63372419D02*
X101946741Y-64372419D01*
X101946741Y-64372419D02*
X102280074Y-63372419D01*
D11*
X75548095Y-106288152D02*
X75548095Y-106954819D01*
X75310000Y-105907200D02*
X75071905Y-106621485D01*
X75071905Y-106621485D02*
X75690952Y-106621485D01*
X75976667Y-105954819D02*
X76643333Y-105954819D01*
X76643333Y-105954819D02*
X76214762Y-106954819D01*
X77214762Y-105954819D02*
X77310000Y-105954819D01*
X77310000Y-105954819D02*
X77405238Y-106002438D01*
X77405238Y-106002438D02*
X77452857Y-106050057D01*
X77452857Y-106050057D02*
X77500476Y-106145295D01*
X77500476Y-106145295D02*
X77548095Y-106335771D01*
X77548095Y-106335771D02*
X77548095Y-106573866D01*
X77548095Y-106573866D02*
X77500476Y-106764342D01*
X77500476Y-106764342D02*
X77452857Y-106859580D01*
X77452857Y-106859580D02*
X77405238Y-106907200D01*
X77405238Y-106907200D02*
X77310000Y-106954819D01*
X77310000Y-106954819D02*
X77214762Y-106954819D01*
X77214762Y-106954819D02*
X77119524Y-106907200D01*
X77119524Y-106907200D02*
X77071905Y-106859580D01*
X77071905Y-106859580D02*
X77024286Y-106764342D01*
X77024286Y-106764342D02*
X76976667Y-106573866D01*
X76976667Y-106573866D02*
X76976667Y-106335771D01*
X76976667Y-106335771D02*
X77024286Y-106145295D01*
X77024286Y-106145295D02*
X77071905Y-106050057D01*
X77071905Y-106050057D02*
X77119524Y-106002438D01*
X77119524Y-106002438D02*
X77214762Y-105954819D01*
X87454819Y-156865238D02*
X87454819Y-157436666D01*
X87454819Y-157150952D02*
X86454819Y-157150952D01*
X86454819Y-157150952D02*
X86597676Y-157246190D01*
X86597676Y-157246190D02*
X86692914Y-157341428D01*
X86692914Y-157341428D02*
X86740533Y-157436666D01*
X86454819Y-156246190D02*
X86454819Y-156150952D01*
X86454819Y-156150952D02*
X86502438Y-156055714D01*
X86502438Y-156055714D02*
X86550057Y-156008095D01*
X86550057Y-156008095D02*
X86645295Y-155960476D01*
X86645295Y-155960476D02*
X86835771Y-155912857D01*
X86835771Y-155912857D02*
X87073866Y-155912857D01*
X87073866Y-155912857D02*
X87264342Y-155960476D01*
X87264342Y-155960476D02*
X87359580Y-156008095D01*
X87359580Y-156008095D02*
X87407200Y-156055714D01*
X87407200Y-156055714D02*
X87454819Y-156150952D01*
X87454819Y-156150952D02*
X87454819Y-156246190D01*
X87454819Y-156246190D02*
X87407200Y-156341428D01*
X87407200Y-156341428D02*
X87359580Y-156389047D01*
X87359580Y-156389047D02*
X87264342Y-156436666D01*
X87264342Y-156436666D02*
X87073866Y-156484285D01*
X87073866Y-156484285D02*
X86835771Y-156484285D01*
X86835771Y-156484285D02*
X86645295Y-156436666D01*
X86645295Y-156436666D02*
X86550057Y-156389047D01*
X86550057Y-156389047D02*
X86502438Y-156341428D01*
X86502438Y-156341428D02*
X86454819Y-156246190D01*
X87454819Y-155484285D02*
X86454819Y-155484285D01*
X87073866Y-155389047D02*
X87454819Y-155103333D01*
X86788152Y-155103333D02*
X87169104Y-155484285D01*
X106619523Y-95288152D02*
X106619523Y-95954819D01*
X106381428Y-94907200D02*
X106143333Y-95621485D01*
X106143333Y-95621485D02*
X106762380Y-95621485D01*
X107143333Y-95954819D02*
X107143333Y-94954819D01*
X107238571Y-95573866D02*
X107524285Y-95954819D01*
X107524285Y-95288152D02*
X107143333Y-95669104D01*
X107857619Y-94954819D02*
X108524285Y-94954819D01*
X108524285Y-94954819D02*
X108095714Y-95954819D01*
X109119523Y-100288152D02*
X109119523Y-100954819D01*
X108881428Y-99907200D02*
X108643333Y-100621485D01*
X108643333Y-100621485D02*
X109262380Y-100621485D01*
X109643333Y-100954819D02*
X109643333Y-99954819D01*
X109738571Y-100573866D02*
X110024285Y-100954819D01*
X110024285Y-100288152D02*
X109643333Y-100669104D01*
X110357619Y-99954819D02*
X111024285Y-99954819D01*
X111024285Y-99954819D02*
X110595714Y-100954819D01*
X96454819Y-156595238D02*
X96454819Y-157166666D01*
X96454819Y-156880952D02*
X95454819Y-156880952D01*
X95454819Y-156880952D02*
X95597676Y-156976190D01*
X95597676Y-156976190D02*
X95692914Y-157071428D01*
X95692914Y-157071428D02*
X95740533Y-157166666D01*
X95454819Y-155976190D02*
X95454819Y-155880952D01*
X95454819Y-155880952D02*
X95502438Y-155785714D01*
X95502438Y-155785714D02*
X95550057Y-155738095D01*
X95550057Y-155738095D02*
X95645295Y-155690476D01*
X95645295Y-155690476D02*
X95835771Y-155642857D01*
X95835771Y-155642857D02*
X96073866Y-155642857D01*
X96073866Y-155642857D02*
X96264342Y-155690476D01*
X96264342Y-155690476D02*
X96359580Y-155738095D01*
X96359580Y-155738095D02*
X96407200Y-155785714D01*
X96407200Y-155785714D02*
X96454819Y-155880952D01*
X96454819Y-155880952D02*
X96454819Y-155976190D01*
X96454819Y-155976190D02*
X96407200Y-156071428D01*
X96407200Y-156071428D02*
X96359580Y-156119047D01*
X96359580Y-156119047D02*
X96264342Y-156166666D01*
X96264342Y-156166666D02*
X96073866Y-156214285D01*
X96073866Y-156214285D02*
X95835771Y-156214285D01*
X95835771Y-156214285D02*
X95645295Y-156166666D01*
X95645295Y-156166666D02*
X95550057Y-156119047D01*
X95550057Y-156119047D02*
X95502438Y-156071428D01*
X95502438Y-156071428D02*
X95454819Y-155976190D01*
X96454819Y-155214285D02*
X95454819Y-155214285D01*
X96073866Y-155119047D02*
X96454819Y-154833333D01*
X95788152Y-154833333D02*
X96169104Y-155214285D01*
X83539104Y-113704285D02*
X83539104Y-113228095D01*
X83824819Y-113799523D02*
X82824819Y-113466190D01*
X82824819Y-113466190D02*
X83824819Y-113132857D01*
X83824819Y-112275714D02*
X83824819Y-112847142D01*
X83824819Y-112561428D02*
X82824819Y-112561428D01*
X82824819Y-112561428D02*
X82967676Y-112656666D01*
X82967676Y-112656666D02*
X83062914Y-112751904D01*
X83062914Y-112751904D02*
X83110533Y-112847142D01*
X123464819Y-114251904D02*
X124274342Y-114251904D01*
X124274342Y-114251904D02*
X124369580Y-114204285D01*
X124369580Y-114204285D02*
X124417200Y-114156666D01*
X124417200Y-114156666D02*
X124464819Y-114061428D01*
X124464819Y-114061428D02*
X124464819Y-113870952D01*
X124464819Y-113870952D02*
X124417200Y-113775714D01*
X124417200Y-113775714D02*
X124369580Y-113728095D01*
X124369580Y-113728095D02*
X124274342Y-113680476D01*
X124274342Y-113680476D02*
X123464819Y-113680476D01*
X124417200Y-113251904D02*
X124464819Y-113109047D01*
X124464819Y-113109047D02*
X124464819Y-112870952D01*
X124464819Y-112870952D02*
X124417200Y-112775714D01*
X124417200Y-112775714D02*
X124369580Y-112728095D01*
X124369580Y-112728095D02*
X124274342Y-112680476D01*
X124274342Y-112680476D02*
X124179104Y-112680476D01*
X124179104Y-112680476D02*
X124083866Y-112728095D01*
X124083866Y-112728095D02*
X124036247Y-112775714D01*
X124036247Y-112775714D02*
X123988628Y-112870952D01*
X123988628Y-112870952D02*
X123941009Y-113061428D01*
X123941009Y-113061428D02*
X123893390Y-113156666D01*
X123893390Y-113156666D02*
X123845771Y-113204285D01*
X123845771Y-113204285D02*
X123750533Y-113251904D01*
X123750533Y-113251904D02*
X123655295Y-113251904D01*
X123655295Y-113251904D02*
X123560057Y-113204285D01*
X123560057Y-113204285D02*
X123512438Y-113156666D01*
X123512438Y-113156666D02*
X123464819Y-113061428D01*
X123464819Y-113061428D02*
X123464819Y-112823333D01*
X123464819Y-112823333D02*
X123512438Y-112680476D01*
X123941009Y-111918571D02*
X123988628Y-111775714D01*
X123988628Y-111775714D02*
X124036247Y-111728095D01*
X124036247Y-111728095D02*
X124131485Y-111680476D01*
X124131485Y-111680476D02*
X124274342Y-111680476D01*
X124274342Y-111680476D02*
X124369580Y-111728095D01*
X124369580Y-111728095D02*
X124417200Y-111775714D01*
X124417200Y-111775714D02*
X124464819Y-111870952D01*
X124464819Y-111870952D02*
X124464819Y-112251904D01*
X124464819Y-112251904D02*
X123464819Y-112251904D01*
X123464819Y-112251904D02*
X123464819Y-111918571D01*
X123464819Y-111918571D02*
X123512438Y-111823333D01*
X123512438Y-111823333D02*
X123560057Y-111775714D01*
X123560057Y-111775714D02*
X123655295Y-111728095D01*
X123655295Y-111728095D02*
X123750533Y-111728095D01*
X123750533Y-111728095D02*
X123845771Y-111775714D01*
X123845771Y-111775714D02*
X123893390Y-111823333D01*
X123893390Y-111823333D02*
X123941009Y-111918571D01*
X123941009Y-111918571D02*
X123941009Y-112251904D01*
X66166667Y-102037200D02*
X66309524Y-102084819D01*
X66309524Y-102084819D02*
X66547619Y-102084819D01*
X66547619Y-102084819D02*
X66642857Y-102037200D01*
X66642857Y-102037200D02*
X66690476Y-101989580D01*
X66690476Y-101989580D02*
X66738095Y-101894342D01*
X66738095Y-101894342D02*
X66738095Y-101799104D01*
X66738095Y-101799104D02*
X66690476Y-101703866D01*
X66690476Y-101703866D02*
X66642857Y-101656247D01*
X66642857Y-101656247D02*
X66547619Y-101608628D01*
X66547619Y-101608628D02*
X66357143Y-101561009D01*
X66357143Y-101561009D02*
X66261905Y-101513390D01*
X66261905Y-101513390D02*
X66214286Y-101465771D01*
X66214286Y-101465771D02*
X66166667Y-101370533D01*
X66166667Y-101370533D02*
X66166667Y-101275295D01*
X66166667Y-101275295D02*
X66214286Y-101180057D01*
X66214286Y-101180057D02*
X66261905Y-101132438D01*
X66261905Y-101132438D02*
X66357143Y-101084819D01*
X66357143Y-101084819D02*
X66595238Y-101084819D01*
X66595238Y-101084819D02*
X66738095Y-101132438D01*
X67071429Y-101084819D02*
X67309524Y-102084819D01*
X67309524Y-102084819D02*
X67500000Y-101370533D01*
X67500000Y-101370533D02*
X67690476Y-102084819D01*
X67690476Y-102084819D02*
X67928572Y-101084819D01*
X68261905Y-101180057D02*
X68309524Y-101132438D01*
X68309524Y-101132438D02*
X68404762Y-101084819D01*
X68404762Y-101084819D02*
X68642857Y-101084819D01*
X68642857Y-101084819D02*
X68738095Y-101132438D01*
X68738095Y-101132438D02*
X68785714Y-101180057D01*
X68785714Y-101180057D02*
X68833333Y-101275295D01*
X68833333Y-101275295D02*
X68833333Y-101370533D01*
X68833333Y-101370533D02*
X68785714Y-101513390D01*
X68785714Y-101513390D02*
X68214286Y-102084819D01*
X68214286Y-102084819D02*
X68833333Y-102084819D01*
X63428571Y-112494819D02*
X63428571Y-111494819D01*
X63428571Y-111494819D02*
X63761904Y-112209104D01*
X63761904Y-112209104D02*
X64095237Y-111494819D01*
X64095237Y-111494819D02*
X64095237Y-112494819D01*
X64714285Y-112494819D02*
X64619047Y-112447200D01*
X64619047Y-112447200D02*
X64571428Y-112399580D01*
X64571428Y-112399580D02*
X64523809Y-112304342D01*
X64523809Y-112304342D02*
X64523809Y-112018628D01*
X64523809Y-112018628D02*
X64571428Y-111923390D01*
X64571428Y-111923390D02*
X64619047Y-111875771D01*
X64619047Y-111875771D02*
X64714285Y-111828152D01*
X64714285Y-111828152D02*
X64857142Y-111828152D01*
X64857142Y-111828152D02*
X64952380Y-111875771D01*
X64952380Y-111875771D02*
X64999999Y-111923390D01*
X64999999Y-111923390D02*
X65047618Y-112018628D01*
X65047618Y-112018628D02*
X65047618Y-112304342D01*
X65047618Y-112304342D02*
X64999999Y-112399580D01*
X64999999Y-112399580D02*
X64952380Y-112447200D01*
X64952380Y-112447200D02*
X64857142Y-112494819D01*
X64857142Y-112494819D02*
X64714285Y-112494819D01*
X65904761Y-112494819D02*
X65904761Y-111494819D01*
X65904761Y-112447200D02*
X65809523Y-112494819D01*
X65809523Y-112494819D02*
X65619047Y-112494819D01*
X65619047Y-112494819D02*
X65523809Y-112447200D01*
X65523809Y-112447200D02*
X65476190Y-112399580D01*
X65476190Y-112399580D02*
X65428571Y-112304342D01*
X65428571Y-112304342D02*
X65428571Y-112018628D01*
X65428571Y-112018628D02*
X65476190Y-111923390D01*
X65476190Y-111923390D02*
X65523809Y-111875771D01*
X65523809Y-111875771D02*
X65619047Y-111828152D01*
X65619047Y-111828152D02*
X65809523Y-111828152D01*
X65809523Y-111828152D02*
X65904761Y-111875771D01*
X66761904Y-112447200D02*
X66666666Y-112494819D01*
X66666666Y-112494819D02*
X66476190Y-112494819D01*
X66476190Y-112494819D02*
X66380952Y-112447200D01*
X66380952Y-112447200D02*
X66333333Y-112351961D01*
X66333333Y-112351961D02*
X66333333Y-111971009D01*
X66333333Y-111971009D02*
X66380952Y-111875771D01*
X66380952Y-111875771D02*
X66476190Y-111828152D01*
X66476190Y-111828152D02*
X66666666Y-111828152D01*
X66666666Y-111828152D02*
X66761904Y-111875771D01*
X66761904Y-111875771D02*
X66809523Y-111971009D01*
X66809523Y-111971009D02*
X66809523Y-112066247D01*
X66809523Y-112066247D02*
X66333333Y-112161485D01*
X67190476Y-112447200D02*
X67333333Y-112494819D01*
X67333333Y-112494819D02*
X67571428Y-112494819D01*
X67571428Y-112494819D02*
X67666666Y-112447200D01*
X67666666Y-112447200D02*
X67714285Y-112399580D01*
X67714285Y-112399580D02*
X67761904Y-112304342D01*
X67761904Y-112304342D02*
X67761904Y-112209104D01*
X67761904Y-112209104D02*
X67714285Y-112113866D01*
X67714285Y-112113866D02*
X67666666Y-112066247D01*
X67666666Y-112066247D02*
X67571428Y-112018628D01*
X67571428Y-112018628D02*
X67380952Y-111971009D01*
X67380952Y-111971009D02*
X67285714Y-111923390D01*
X67285714Y-111923390D02*
X67238095Y-111875771D01*
X67238095Y-111875771D02*
X67190476Y-111780533D01*
X67190476Y-111780533D02*
X67190476Y-111685295D01*
X67190476Y-111685295D02*
X67238095Y-111590057D01*
X67238095Y-111590057D02*
X67285714Y-111542438D01*
X67285714Y-111542438D02*
X67380952Y-111494819D01*
X67380952Y-111494819D02*
X67619047Y-111494819D01*
X67619047Y-111494819D02*
X67761904Y-111542438D01*
X68095238Y-111828152D02*
X68285714Y-112494819D01*
X68285714Y-112494819D02*
X68476190Y-112018628D01*
X68476190Y-112018628D02*
X68666666Y-112494819D01*
X68666666Y-112494819D02*
X68857142Y-111828152D01*
X69238095Y-112494819D02*
X69238095Y-111828152D01*
X69238095Y-111494819D02*
X69190476Y-111542438D01*
X69190476Y-111542438D02*
X69238095Y-111590057D01*
X69238095Y-111590057D02*
X69285714Y-111542438D01*
X69285714Y-111542438D02*
X69238095Y-111494819D01*
X69238095Y-111494819D02*
X69238095Y-111590057D01*
X69571428Y-111828152D02*
X69952380Y-111828152D01*
X69714285Y-111494819D02*
X69714285Y-112351961D01*
X69714285Y-112351961D02*
X69761904Y-112447200D01*
X69761904Y-112447200D02*
X69857142Y-112494819D01*
X69857142Y-112494819D02*
X69952380Y-112494819D01*
X70714285Y-112447200D02*
X70619047Y-112494819D01*
X70619047Y-112494819D02*
X70428571Y-112494819D01*
X70428571Y-112494819D02*
X70333333Y-112447200D01*
X70333333Y-112447200D02*
X70285714Y-112399580D01*
X70285714Y-112399580D02*
X70238095Y-112304342D01*
X70238095Y-112304342D02*
X70238095Y-112018628D01*
X70238095Y-112018628D02*
X70285714Y-111923390D01*
X70285714Y-111923390D02*
X70333333Y-111875771D01*
X70333333Y-111875771D02*
X70428571Y-111828152D01*
X70428571Y-111828152D02*
X70619047Y-111828152D01*
X70619047Y-111828152D02*
X70714285Y-111875771D01*
X71142857Y-112494819D02*
X71142857Y-111494819D01*
X71571428Y-112494819D02*
X71571428Y-111971009D01*
X71571428Y-111971009D02*
X71523809Y-111875771D01*
X71523809Y-111875771D02*
X71428571Y-111828152D01*
X71428571Y-111828152D02*
X71285714Y-111828152D01*
X71285714Y-111828152D02*
X71190476Y-111875771D01*
X71190476Y-111875771D02*
X71142857Y-111923390D01*
X80148571Y-90454819D02*
X79815238Y-89978628D01*
X79577143Y-90454819D02*
X79577143Y-89454819D01*
X79577143Y-89454819D02*
X79958095Y-89454819D01*
X79958095Y-89454819D02*
X80053333Y-89502438D01*
X80053333Y-89502438D02*
X80100952Y-89550057D01*
X80100952Y-89550057D02*
X80148571Y-89645295D01*
X80148571Y-89645295D02*
X80148571Y-89788152D01*
X80148571Y-89788152D02*
X80100952Y-89883390D01*
X80100952Y-89883390D02*
X80053333Y-89931009D01*
X80053333Y-89931009D02*
X79958095Y-89978628D01*
X79958095Y-89978628D02*
X79577143Y-89978628D01*
X80529524Y-90407200D02*
X80672381Y-90454819D01*
X80672381Y-90454819D02*
X80910476Y-90454819D01*
X80910476Y-90454819D02*
X81005714Y-90407200D01*
X81005714Y-90407200D02*
X81053333Y-90359580D01*
X81053333Y-90359580D02*
X81100952Y-90264342D01*
X81100952Y-90264342D02*
X81100952Y-90169104D01*
X81100952Y-90169104D02*
X81053333Y-90073866D01*
X81053333Y-90073866D02*
X81005714Y-90026247D01*
X81005714Y-90026247D02*
X80910476Y-89978628D01*
X80910476Y-89978628D02*
X80720000Y-89931009D01*
X80720000Y-89931009D02*
X80624762Y-89883390D01*
X80624762Y-89883390D02*
X80577143Y-89835771D01*
X80577143Y-89835771D02*
X80529524Y-89740533D01*
X80529524Y-89740533D02*
X80529524Y-89645295D01*
X80529524Y-89645295D02*
X80577143Y-89550057D01*
X80577143Y-89550057D02*
X80624762Y-89502438D01*
X80624762Y-89502438D02*
X80720000Y-89454819D01*
X80720000Y-89454819D02*
X80958095Y-89454819D01*
X80958095Y-89454819D02*
X81100952Y-89502438D01*
X81386667Y-89454819D02*
X81958095Y-89454819D01*
X81672381Y-90454819D02*
X81672381Y-89454819D01*
X82291429Y-90073866D02*
X83053334Y-90073866D01*
X83481905Y-90407200D02*
X83624762Y-90454819D01*
X83624762Y-90454819D02*
X83862857Y-90454819D01*
X83862857Y-90454819D02*
X83958095Y-90407200D01*
X83958095Y-90407200D02*
X84005714Y-90359580D01*
X84005714Y-90359580D02*
X84053333Y-90264342D01*
X84053333Y-90264342D02*
X84053333Y-90169104D01*
X84053333Y-90169104D02*
X84005714Y-90073866D01*
X84005714Y-90073866D02*
X83958095Y-90026247D01*
X83958095Y-90026247D02*
X83862857Y-89978628D01*
X83862857Y-89978628D02*
X83672381Y-89931009D01*
X83672381Y-89931009D02*
X83577143Y-89883390D01*
X83577143Y-89883390D02*
X83529524Y-89835771D01*
X83529524Y-89835771D02*
X83481905Y-89740533D01*
X83481905Y-89740533D02*
X83481905Y-89645295D01*
X83481905Y-89645295D02*
X83529524Y-89550057D01*
X83529524Y-89550057D02*
X83577143Y-89502438D01*
X83577143Y-89502438D02*
X83672381Y-89454819D01*
X83672381Y-89454819D02*
X83910476Y-89454819D01*
X83910476Y-89454819D02*
X84053333Y-89502438D01*
X84386667Y-89788152D02*
X84577143Y-90454819D01*
X84577143Y-90454819D02*
X84767619Y-89978628D01*
X84767619Y-89978628D02*
X84958095Y-90454819D01*
X84958095Y-90454819D02*
X85148571Y-89788152D01*
X85529524Y-90454819D02*
X85529524Y-89788152D01*
X85529524Y-89454819D02*
X85481905Y-89502438D01*
X85481905Y-89502438D02*
X85529524Y-89550057D01*
X85529524Y-89550057D02*
X85577143Y-89502438D01*
X85577143Y-89502438D02*
X85529524Y-89454819D01*
X85529524Y-89454819D02*
X85529524Y-89550057D01*
X85862857Y-89788152D02*
X86243809Y-89788152D01*
X86005714Y-89454819D02*
X86005714Y-90311961D01*
X86005714Y-90311961D02*
X86053333Y-90407200D01*
X86053333Y-90407200D02*
X86148571Y-90454819D01*
X86148571Y-90454819D02*
X86243809Y-90454819D01*
X87005714Y-90407200D02*
X86910476Y-90454819D01*
X86910476Y-90454819D02*
X86720000Y-90454819D01*
X86720000Y-90454819D02*
X86624762Y-90407200D01*
X86624762Y-90407200D02*
X86577143Y-90359580D01*
X86577143Y-90359580D02*
X86529524Y-90264342D01*
X86529524Y-90264342D02*
X86529524Y-89978628D01*
X86529524Y-89978628D02*
X86577143Y-89883390D01*
X86577143Y-89883390D02*
X86624762Y-89835771D01*
X86624762Y-89835771D02*
X86720000Y-89788152D01*
X86720000Y-89788152D02*
X86910476Y-89788152D01*
X86910476Y-89788152D02*
X87005714Y-89835771D01*
X87434286Y-90454819D02*
X87434286Y-89454819D01*
X87862857Y-90454819D02*
X87862857Y-89931009D01*
X87862857Y-89931009D02*
X87815238Y-89835771D01*
X87815238Y-89835771D02*
X87720000Y-89788152D01*
X87720000Y-89788152D02*
X87577143Y-89788152D01*
X87577143Y-89788152D02*
X87481905Y-89835771D01*
X87481905Y-89835771D02*
X87434286Y-89883390D01*
X111604819Y-152883333D02*
X112319104Y-152883333D01*
X112319104Y-152883333D02*
X112461961Y-152930952D01*
X112461961Y-152930952D02*
X112557200Y-153026190D01*
X112557200Y-153026190D02*
X112604819Y-153169047D01*
X112604819Y-153169047D02*
X112604819Y-153264285D01*
X111604819Y-152502380D02*
X111604819Y-151883333D01*
X111604819Y-151883333D02*
X111985771Y-152216666D01*
X111985771Y-152216666D02*
X111985771Y-152073809D01*
X111985771Y-152073809D02*
X112033390Y-151978571D01*
X112033390Y-151978571D02*
X112081009Y-151930952D01*
X112081009Y-151930952D02*
X112176247Y-151883333D01*
X112176247Y-151883333D02*
X112414342Y-151883333D01*
X112414342Y-151883333D02*
X112509580Y-151930952D01*
X112509580Y-151930952D02*
X112557200Y-151978571D01*
X112557200Y-151978571D02*
X112604819Y-152073809D01*
X112604819Y-152073809D02*
X112604819Y-152359523D01*
X112604819Y-152359523D02*
X112557200Y-152454761D01*
X112557200Y-152454761D02*
X112509580Y-152502380D01*
X100169104Y-157809523D02*
X100169104Y-157333333D01*
X100454819Y-157904761D02*
X99454819Y-157571428D01*
X99454819Y-157571428D02*
X100454819Y-157238095D01*
X100454819Y-156904761D02*
X99454819Y-156904761D01*
X99454819Y-156904761D02*
X100169104Y-156571428D01*
X100169104Y-156571428D02*
X99454819Y-156238095D01*
X99454819Y-156238095D02*
X100454819Y-156238095D01*
X99550057Y-155809523D02*
X99502438Y-155761904D01*
X99502438Y-155761904D02*
X99454819Y-155666666D01*
X99454819Y-155666666D02*
X99454819Y-155428571D01*
X99454819Y-155428571D02*
X99502438Y-155333333D01*
X99502438Y-155333333D02*
X99550057Y-155285714D01*
X99550057Y-155285714D02*
X99645295Y-155238095D01*
X99645295Y-155238095D02*
X99740533Y-155238095D01*
X99740533Y-155238095D02*
X99883390Y-155285714D01*
X99883390Y-155285714D02*
X100454819Y-155857142D01*
X100454819Y-155857142D02*
X100454819Y-155238095D01*
X99454819Y-154904761D02*
X99454819Y-154285714D01*
X99454819Y-154285714D02*
X99835771Y-154619047D01*
X99835771Y-154619047D02*
X99835771Y-154476190D01*
X99835771Y-154476190D02*
X99883390Y-154380952D01*
X99883390Y-154380952D02*
X99931009Y-154333333D01*
X99931009Y-154333333D02*
X100026247Y-154285714D01*
X100026247Y-154285714D02*
X100264342Y-154285714D01*
X100264342Y-154285714D02*
X100359580Y-154333333D01*
X100359580Y-154333333D02*
X100407200Y-154380952D01*
X100407200Y-154380952D02*
X100454819Y-154476190D01*
X100454819Y-154476190D02*
X100454819Y-154761904D01*
X100454819Y-154761904D02*
X100407200Y-154857142D01*
X100407200Y-154857142D02*
X100359580Y-154904761D01*
X99454819Y-153666666D02*
X99454819Y-153571428D01*
X99454819Y-153571428D02*
X99502438Y-153476190D01*
X99502438Y-153476190D02*
X99550057Y-153428571D01*
X99550057Y-153428571D02*
X99645295Y-153380952D01*
X99645295Y-153380952D02*
X99835771Y-153333333D01*
X99835771Y-153333333D02*
X100073866Y-153333333D01*
X100073866Y-153333333D02*
X100264342Y-153380952D01*
X100264342Y-153380952D02*
X100359580Y-153428571D01*
X100359580Y-153428571D02*
X100407200Y-153476190D01*
X100407200Y-153476190D02*
X100454819Y-153571428D01*
X100454819Y-153571428D02*
X100454819Y-153666666D01*
X100454819Y-153666666D02*
X100407200Y-153761904D01*
X100407200Y-153761904D02*
X100359580Y-153809523D01*
X100359580Y-153809523D02*
X100264342Y-153857142D01*
X100264342Y-153857142D02*
X100073866Y-153904761D01*
X100073866Y-153904761D02*
X99835771Y-153904761D01*
X99835771Y-153904761D02*
X99645295Y-153857142D01*
X99645295Y-153857142D02*
X99550057Y-153809523D01*
X99550057Y-153809523D02*
X99502438Y-153761904D01*
X99502438Y-153761904D02*
X99454819Y-153666666D01*
X99550057Y-152952380D02*
X99502438Y-152904761D01*
X99502438Y-152904761D02*
X99454819Y-152809523D01*
X99454819Y-152809523D02*
X99454819Y-152571428D01*
X99454819Y-152571428D02*
X99502438Y-152476190D01*
X99502438Y-152476190D02*
X99550057Y-152428571D01*
X99550057Y-152428571D02*
X99645295Y-152380952D01*
X99645295Y-152380952D02*
X99740533Y-152380952D01*
X99740533Y-152380952D02*
X99883390Y-152428571D01*
X99883390Y-152428571D02*
X100454819Y-152999999D01*
X100454819Y-152999999D02*
X100454819Y-152380952D01*
X100454819Y-151047618D02*
X100407200Y-151142856D01*
X100407200Y-151142856D02*
X100359580Y-151190475D01*
X100359580Y-151190475D02*
X100264342Y-151238094D01*
X100264342Y-151238094D02*
X99978628Y-151238094D01*
X99978628Y-151238094D02*
X99883390Y-151190475D01*
X99883390Y-151190475D02*
X99835771Y-151142856D01*
X99835771Y-151142856D02*
X99788152Y-151047618D01*
X99788152Y-151047618D02*
X99788152Y-150904761D01*
X99788152Y-150904761D02*
X99835771Y-150809523D01*
X99835771Y-150809523D02*
X99883390Y-150761904D01*
X99883390Y-150761904D02*
X99978628Y-150714285D01*
X99978628Y-150714285D02*
X100264342Y-150714285D01*
X100264342Y-150714285D02*
X100359580Y-150761904D01*
X100359580Y-150761904D02*
X100407200Y-150809523D01*
X100407200Y-150809523D02*
X100454819Y-150904761D01*
X100454819Y-150904761D02*
X100454819Y-151047618D01*
X99788152Y-149857142D02*
X100454819Y-149857142D01*
X99788152Y-150285713D02*
X100311961Y-150285713D01*
X100311961Y-150285713D02*
X100407200Y-150238094D01*
X100407200Y-150238094D02*
X100454819Y-150142856D01*
X100454819Y-150142856D02*
X100454819Y-149999999D01*
X100454819Y-149999999D02*
X100407200Y-149904761D01*
X100407200Y-149904761D02*
X100359580Y-149857142D01*
X99788152Y-149523808D02*
X99788152Y-149142856D01*
X99454819Y-149380951D02*
X100311961Y-149380951D01*
X100311961Y-149380951D02*
X100407200Y-149333332D01*
X100407200Y-149333332D02*
X100454819Y-149238094D01*
X100454819Y-149238094D02*
X100454819Y-149142856D01*
X100407200Y-148857141D02*
X100454819Y-148761903D01*
X100454819Y-148761903D02*
X100454819Y-148571427D01*
X100454819Y-148571427D02*
X100407200Y-148476189D01*
X100407200Y-148476189D02*
X100311961Y-148428570D01*
X100311961Y-148428570D02*
X100264342Y-148428570D01*
X100264342Y-148428570D02*
X100169104Y-148476189D01*
X100169104Y-148476189D02*
X100121485Y-148571427D01*
X100121485Y-148571427D02*
X100121485Y-148714284D01*
X100121485Y-148714284D02*
X100073866Y-148809522D01*
X100073866Y-148809522D02*
X99978628Y-148857141D01*
X99978628Y-148857141D02*
X99931009Y-148857141D01*
X99931009Y-148857141D02*
X99835771Y-148809522D01*
X99835771Y-148809522D02*
X99788152Y-148714284D01*
X99788152Y-148714284D02*
X99788152Y-148571427D01*
X99788152Y-148571427D02*
X99835771Y-148476189D01*
X100454819Y-147999998D02*
X99788152Y-147999998D01*
X99454819Y-147999998D02*
X99502438Y-148047617D01*
X99502438Y-148047617D02*
X99550057Y-147999998D01*
X99550057Y-147999998D02*
X99502438Y-147952379D01*
X99502438Y-147952379D02*
X99454819Y-147999998D01*
X99454819Y-147999998D02*
X99550057Y-147999998D01*
X100454819Y-147095237D02*
X99454819Y-147095237D01*
X100407200Y-147095237D02*
X100454819Y-147190475D01*
X100454819Y-147190475D02*
X100454819Y-147380951D01*
X100454819Y-147380951D02*
X100407200Y-147476189D01*
X100407200Y-147476189D02*
X100359580Y-147523808D01*
X100359580Y-147523808D02*
X100264342Y-147571427D01*
X100264342Y-147571427D02*
X99978628Y-147571427D01*
X99978628Y-147571427D02*
X99883390Y-147523808D01*
X99883390Y-147523808D02*
X99835771Y-147476189D01*
X99835771Y-147476189D02*
X99788152Y-147380951D01*
X99788152Y-147380951D02*
X99788152Y-147190475D01*
X99788152Y-147190475D02*
X99835771Y-147095237D01*
X100407200Y-146238094D02*
X100454819Y-146333332D01*
X100454819Y-146333332D02*
X100454819Y-146523808D01*
X100454819Y-146523808D02*
X100407200Y-146619046D01*
X100407200Y-146619046D02*
X100311961Y-146666665D01*
X100311961Y-146666665D02*
X99931009Y-146666665D01*
X99931009Y-146666665D02*
X99835771Y-146619046D01*
X99835771Y-146619046D02*
X99788152Y-146523808D01*
X99788152Y-146523808D02*
X99788152Y-146333332D01*
X99788152Y-146333332D02*
X99835771Y-146238094D01*
X99835771Y-146238094D02*
X99931009Y-146190475D01*
X99931009Y-146190475D02*
X100026247Y-146190475D01*
X100026247Y-146190475D02*
X100121485Y-146666665D01*
X119666666Y-126084819D02*
X119666666Y-126799104D01*
X119666666Y-126799104D02*
X119619047Y-126941961D01*
X119619047Y-126941961D02*
X119523809Y-127037200D01*
X119523809Y-127037200D02*
X119380952Y-127084819D01*
X119380952Y-127084819D02*
X119285714Y-127084819D01*
X120571428Y-126084819D02*
X120380952Y-126084819D01*
X120380952Y-126084819D02*
X120285714Y-126132438D01*
X120285714Y-126132438D02*
X120238095Y-126180057D01*
X120238095Y-126180057D02*
X120142857Y-126322914D01*
X120142857Y-126322914D02*
X120095238Y-126513390D01*
X120095238Y-126513390D02*
X120095238Y-126894342D01*
X120095238Y-126894342D02*
X120142857Y-126989580D01*
X120142857Y-126989580D02*
X120190476Y-127037200D01*
X120190476Y-127037200D02*
X120285714Y-127084819D01*
X120285714Y-127084819D02*
X120476190Y-127084819D01*
X120476190Y-127084819D02*
X120571428Y-127037200D01*
X120571428Y-127037200D02*
X120619047Y-126989580D01*
X120619047Y-126989580D02*
X120666666Y-126894342D01*
X120666666Y-126894342D02*
X120666666Y-126656247D01*
X120666666Y-126656247D02*
X120619047Y-126561009D01*
X120619047Y-126561009D02*
X120571428Y-126513390D01*
X120571428Y-126513390D02*
X120476190Y-126465771D01*
X120476190Y-126465771D02*
X120285714Y-126465771D01*
X120285714Y-126465771D02*
X120190476Y-126513390D01*
X120190476Y-126513390D02*
X120142857Y-126561009D01*
X120142857Y-126561009D02*
X120095238Y-126656247D01*
X116880952Y-144907200D02*
X117023809Y-144954819D01*
X117023809Y-144954819D02*
X117261904Y-144954819D01*
X117261904Y-144954819D02*
X117357142Y-144907200D01*
X117357142Y-144907200D02*
X117404761Y-144859580D01*
X117404761Y-144859580D02*
X117452380Y-144764342D01*
X117452380Y-144764342D02*
X117452380Y-144669104D01*
X117452380Y-144669104D02*
X117404761Y-144573866D01*
X117404761Y-144573866D02*
X117357142Y-144526247D01*
X117357142Y-144526247D02*
X117261904Y-144478628D01*
X117261904Y-144478628D02*
X117071428Y-144431009D01*
X117071428Y-144431009D02*
X116976190Y-144383390D01*
X116976190Y-144383390D02*
X116928571Y-144335771D01*
X116928571Y-144335771D02*
X116880952Y-144240533D01*
X116880952Y-144240533D02*
X116880952Y-144145295D01*
X116880952Y-144145295D02*
X116928571Y-144050057D01*
X116928571Y-144050057D02*
X116976190Y-144002438D01*
X116976190Y-144002438D02*
X117071428Y-143954819D01*
X117071428Y-143954819D02*
X117309523Y-143954819D01*
X117309523Y-143954819D02*
X117452380Y-144002438D01*
X117880952Y-144954819D02*
X117880952Y-143954819D01*
X117880952Y-143954819D02*
X118119047Y-143954819D01*
X118119047Y-143954819D02*
X118261904Y-144002438D01*
X118261904Y-144002438D02*
X118357142Y-144097676D01*
X118357142Y-144097676D02*
X118404761Y-144192914D01*
X118404761Y-144192914D02*
X118452380Y-144383390D01*
X118452380Y-144383390D02*
X118452380Y-144526247D01*
X118452380Y-144526247D02*
X118404761Y-144716723D01*
X118404761Y-144716723D02*
X118357142Y-144811961D01*
X118357142Y-144811961D02*
X118261904Y-144907200D01*
X118261904Y-144907200D02*
X118119047Y-144954819D01*
X118119047Y-144954819D02*
X117880952Y-144954819D01*
X118880952Y-144573866D02*
X119642857Y-144573866D01*
X120690475Y-144859580D02*
X120642856Y-144907200D01*
X120642856Y-144907200D02*
X120499999Y-144954819D01*
X120499999Y-144954819D02*
X120404761Y-144954819D01*
X120404761Y-144954819D02*
X120261904Y-144907200D01*
X120261904Y-144907200D02*
X120166666Y-144811961D01*
X120166666Y-144811961D02*
X120119047Y-144716723D01*
X120119047Y-144716723D02*
X120071428Y-144526247D01*
X120071428Y-144526247D02*
X120071428Y-144383390D01*
X120071428Y-144383390D02*
X120119047Y-144192914D01*
X120119047Y-144192914D02*
X120166666Y-144097676D01*
X120166666Y-144097676D02*
X120261904Y-144002438D01*
X120261904Y-144002438D02*
X120404761Y-143954819D01*
X120404761Y-143954819D02*
X120499999Y-143954819D01*
X120499999Y-143954819D02*
X120642856Y-144002438D01*
X120642856Y-144002438D02*
X120690475Y-144050057D01*
X121547618Y-144954819D02*
X121547618Y-144431009D01*
X121547618Y-144431009D02*
X121499999Y-144335771D01*
X121499999Y-144335771D02*
X121404761Y-144288152D01*
X121404761Y-144288152D02*
X121214285Y-144288152D01*
X121214285Y-144288152D02*
X121119047Y-144335771D01*
X121547618Y-144907200D02*
X121452380Y-144954819D01*
X121452380Y-144954819D02*
X121214285Y-144954819D01*
X121214285Y-144954819D02*
X121119047Y-144907200D01*
X121119047Y-144907200D02*
X121071428Y-144811961D01*
X121071428Y-144811961D02*
X121071428Y-144716723D01*
X121071428Y-144716723D02*
X121119047Y-144621485D01*
X121119047Y-144621485D02*
X121214285Y-144573866D01*
X121214285Y-144573866D02*
X121452380Y-144573866D01*
X121452380Y-144573866D02*
X121547618Y-144526247D01*
X122023809Y-144954819D02*
X122023809Y-144288152D01*
X122023809Y-144478628D02*
X122071428Y-144383390D01*
X122071428Y-144383390D02*
X122119047Y-144335771D01*
X122119047Y-144335771D02*
X122214285Y-144288152D01*
X122214285Y-144288152D02*
X122309523Y-144288152D01*
X123071428Y-144954819D02*
X123071428Y-143954819D01*
X123071428Y-144907200D02*
X122976190Y-144954819D01*
X122976190Y-144954819D02*
X122785714Y-144954819D01*
X122785714Y-144954819D02*
X122690476Y-144907200D01*
X122690476Y-144907200D02*
X122642857Y-144859580D01*
X122642857Y-144859580D02*
X122595238Y-144764342D01*
X122595238Y-144764342D02*
X122595238Y-144478628D01*
X122595238Y-144478628D02*
X122642857Y-144383390D01*
X122642857Y-144383390D02*
X122690476Y-144335771D01*
X122690476Y-144335771D02*
X122785714Y-144288152D01*
X122785714Y-144288152D02*
X122976190Y-144288152D01*
X122976190Y-144288152D02*
X123071428Y-144335771D01*
X97666666Y-83944819D02*
X97666666Y-84659104D01*
X97666666Y-84659104D02*
X97619047Y-84801961D01*
X97619047Y-84801961D02*
X97523809Y-84897200D01*
X97523809Y-84897200D02*
X97380952Y-84944819D01*
X97380952Y-84944819D02*
X97285714Y-84944819D01*
X98619047Y-83944819D02*
X98142857Y-83944819D01*
X98142857Y-83944819D02*
X98095238Y-84421009D01*
X98095238Y-84421009D02*
X98142857Y-84373390D01*
X98142857Y-84373390D02*
X98238095Y-84325771D01*
X98238095Y-84325771D02*
X98476190Y-84325771D01*
X98476190Y-84325771D02*
X98571428Y-84373390D01*
X98571428Y-84373390D02*
X98619047Y-84421009D01*
X98619047Y-84421009D02*
X98666666Y-84516247D01*
X98666666Y-84516247D02*
X98666666Y-84754342D01*
X98666666Y-84754342D02*
X98619047Y-84849580D01*
X98619047Y-84849580D02*
X98571428Y-84897200D01*
X98571428Y-84897200D02*
X98476190Y-84944819D01*
X98476190Y-84944819D02*
X98238095Y-84944819D01*
X98238095Y-84944819D02*
X98142857Y-84897200D01*
X98142857Y-84897200D02*
X98095238Y-84849580D01*
X95454819Y-77412380D02*
X94454819Y-77412380D01*
X94454819Y-77412380D02*
X94454819Y-77174285D01*
X94454819Y-77174285D02*
X94502438Y-77031428D01*
X94502438Y-77031428D02*
X94597676Y-76936190D01*
X94597676Y-76936190D02*
X94692914Y-76888571D01*
X94692914Y-76888571D02*
X94883390Y-76840952D01*
X94883390Y-76840952D02*
X95026247Y-76840952D01*
X95026247Y-76840952D02*
X95216723Y-76888571D01*
X95216723Y-76888571D02*
X95311961Y-76936190D01*
X95311961Y-76936190D02*
X95407200Y-77031428D01*
X95407200Y-77031428D02*
X95454819Y-77174285D01*
X95454819Y-77174285D02*
X95454819Y-77412380D01*
X95454819Y-75888571D02*
X95454819Y-76459999D01*
X95454819Y-76174285D02*
X94454819Y-76174285D01*
X94454819Y-76174285D02*
X94597676Y-76269523D01*
X94597676Y-76269523D02*
X94692914Y-76364761D01*
X94692914Y-76364761D02*
X94740533Y-76459999D01*
X95454819Y-74698094D02*
X94454819Y-74698094D01*
X94454819Y-74698094D02*
X95169104Y-74364761D01*
X95169104Y-74364761D02*
X94454819Y-74031428D01*
X94454819Y-74031428D02*
X95454819Y-74031428D01*
X95454819Y-73555237D02*
X94454819Y-73555237D01*
X95454819Y-73079047D02*
X94454819Y-73079047D01*
X94454819Y-73079047D02*
X95454819Y-72507619D01*
X95454819Y-72507619D02*
X94454819Y-72507619D01*
X95454819Y-72031428D02*
X94454819Y-72031428D01*
X95073866Y-70793333D02*
X95073866Y-70031429D01*
X95454819Y-68221905D02*
X94978628Y-68555238D01*
X95454819Y-68793333D02*
X94454819Y-68793333D01*
X94454819Y-68793333D02*
X94454819Y-68412381D01*
X94454819Y-68412381D02*
X94502438Y-68317143D01*
X94502438Y-68317143D02*
X94550057Y-68269524D01*
X94550057Y-68269524D02*
X94645295Y-68221905D01*
X94645295Y-68221905D02*
X94788152Y-68221905D01*
X94788152Y-68221905D02*
X94883390Y-68269524D01*
X94883390Y-68269524D02*
X94931009Y-68317143D01*
X94931009Y-68317143D02*
X94978628Y-68412381D01*
X94978628Y-68412381D02*
X94978628Y-68793333D01*
X94454819Y-67936190D02*
X94454819Y-67364762D01*
X95454819Y-67650476D02*
X94454819Y-67650476D01*
X95359580Y-66460000D02*
X95407200Y-66507619D01*
X95407200Y-66507619D02*
X95454819Y-66650476D01*
X95454819Y-66650476D02*
X95454819Y-66745714D01*
X95454819Y-66745714D02*
X95407200Y-66888571D01*
X95407200Y-66888571D02*
X95311961Y-66983809D01*
X95311961Y-66983809D02*
X95216723Y-67031428D01*
X95216723Y-67031428D02*
X95026247Y-67079047D01*
X95026247Y-67079047D02*
X94883390Y-67079047D01*
X94883390Y-67079047D02*
X94692914Y-67031428D01*
X94692914Y-67031428D02*
X94597676Y-66983809D01*
X94597676Y-66983809D02*
X94502438Y-66888571D01*
X94502438Y-66888571D02*
X94454819Y-66745714D01*
X94454819Y-66745714D02*
X94454819Y-66650476D01*
X94454819Y-66650476D02*
X94502438Y-66507619D01*
X94502438Y-66507619D02*
X94550057Y-66460000D01*
X59666666Y-101139819D02*
X59666666Y-101854104D01*
X59666666Y-101854104D02*
X59619047Y-101996961D01*
X59619047Y-101996961D02*
X59523809Y-102092200D01*
X59523809Y-102092200D02*
X59380952Y-102139819D01*
X59380952Y-102139819D02*
X59285714Y-102139819D01*
X60047619Y-101139819D02*
X60714285Y-101139819D01*
X60714285Y-101139819D02*
X60285714Y-102139819D01*
X58523809Y-112494819D02*
X58190476Y-112018628D01*
X57952381Y-112494819D02*
X57952381Y-111494819D01*
X57952381Y-111494819D02*
X58333333Y-111494819D01*
X58333333Y-111494819D02*
X58428571Y-111542438D01*
X58428571Y-111542438D02*
X58476190Y-111590057D01*
X58476190Y-111590057D02*
X58523809Y-111685295D01*
X58523809Y-111685295D02*
X58523809Y-111828152D01*
X58523809Y-111828152D02*
X58476190Y-111923390D01*
X58476190Y-111923390D02*
X58428571Y-111971009D01*
X58428571Y-111971009D02*
X58333333Y-112018628D01*
X58333333Y-112018628D02*
X57952381Y-112018628D01*
X59333333Y-112447200D02*
X59238095Y-112494819D01*
X59238095Y-112494819D02*
X59047619Y-112494819D01*
X59047619Y-112494819D02*
X58952381Y-112447200D01*
X58952381Y-112447200D02*
X58904762Y-112351961D01*
X58904762Y-112351961D02*
X58904762Y-111971009D01*
X58904762Y-111971009D02*
X58952381Y-111875771D01*
X58952381Y-111875771D02*
X59047619Y-111828152D01*
X59047619Y-111828152D02*
X59238095Y-111828152D01*
X59238095Y-111828152D02*
X59333333Y-111875771D01*
X59333333Y-111875771D02*
X59380952Y-111971009D01*
X59380952Y-111971009D02*
X59380952Y-112066247D01*
X59380952Y-112066247D02*
X58904762Y-112161485D01*
X59952381Y-112494819D02*
X59857143Y-112447200D01*
X59857143Y-112447200D02*
X59809524Y-112351961D01*
X59809524Y-112351961D02*
X59809524Y-111494819D01*
X60761905Y-112494819D02*
X60761905Y-111971009D01*
X60761905Y-111971009D02*
X60714286Y-111875771D01*
X60714286Y-111875771D02*
X60619048Y-111828152D01*
X60619048Y-111828152D02*
X60428572Y-111828152D01*
X60428572Y-111828152D02*
X60333334Y-111875771D01*
X60761905Y-112447200D02*
X60666667Y-112494819D01*
X60666667Y-112494819D02*
X60428572Y-112494819D01*
X60428572Y-112494819D02*
X60333334Y-112447200D01*
X60333334Y-112447200D02*
X60285715Y-112351961D01*
X60285715Y-112351961D02*
X60285715Y-112256723D01*
X60285715Y-112256723D02*
X60333334Y-112161485D01*
X60333334Y-112161485D02*
X60428572Y-112113866D01*
X60428572Y-112113866D02*
X60666667Y-112113866D01*
X60666667Y-112113866D02*
X60761905Y-112066247D01*
X61238096Y-112494819D02*
X61238096Y-111828152D01*
X61238096Y-111494819D02*
X61190477Y-111542438D01*
X61190477Y-111542438D02*
X61238096Y-111590057D01*
X61238096Y-111590057D02*
X61285715Y-111542438D01*
X61285715Y-111542438D02*
X61238096Y-111494819D01*
X61238096Y-111494819D02*
X61238096Y-111590057D01*
X61666667Y-112447200D02*
X61761905Y-112494819D01*
X61761905Y-112494819D02*
X61952381Y-112494819D01*
X61952381Y-112494819D02*
X62047619Y-112447200D01*
X62047619Y-112447200D02*
X62095238Y-112351961D01*
X62095238Y-112351961D02*
X62095238Y-112304342D01*
X62095238Y-112304342D02*
X62047619Y-112209104D01*
X62047619Y-112209104D02*
X61952381Y-112161485D01*
X61952381Y-112161485D02*
X61809524Y-112161485D01*
X61809524Y-112161485D02*
X61714286Y-112113866D01*
X61714286Y-112113866D02*
X61666667Y-112018628D01*
X61666667Y-112018628D02*
X61666667Y-111971009D01*
X61666667Y-111971009D02*
X61714286Y-111875771D01*
X61714286Y-111875771D02*
X61809524Y-111828152D01*
X61809524Y-111828152D02*
X61952381Y-111828152D01*
X61952381Y-111828152D02*
X62047619Y-111875771D01*
X92291428Y-95204819D02*
X91720000Y-95204819D01*
X92005714Y-95204819D02*
X92005714Y-94204819D01*
X92005714Y-94204819D02*
X91910476Y-94347676D01*
X91910476Y-94347676D02*
X91815238Y-94442914D01*
X91815238Y-94442914D02*
X91720000Y-94490533D01*
X92910476Y-94204819D02*
X93005714Y-94204819D01*
X93005714Y-94204819D02*
X93100952Y-94252438D01*
X93100952Y-94252438D02*
X93148571Y-94300057D01*
X93148571Y-94300057D02*
X93196190Y-94395295D01*
X93196190Y-94395295D02*
X93243809Y-94585771D01*
X93243809Y-94585771D02*
X93243809Y-94823866D01*
X93243809Y-94823866D02*
X93196190Y-95014342D01*
X93196190Y-95014342D02*
X93148571Y-95109580D01*
X93148571Y-95109580D02*
X93100952Y-95157200D01*
X93100952Y-95157200D02*
X93005714Y-95204819D01*
X93005714Y-95204819D02*
X92910476Y-95204819D01*
X92910476Y-95204819D02*
X92815238Y-95157200D01*
X92815238Y-95157200D02*
X92767619Y-95109580D01*
X92767619Y-95109580D02*
X92720000Y-95014342D01*
X92720000Y-95014342D02*
X92672381Y-94823866D01*
X92672381Y-94823866D02*
X92672381Y-94585771D01*
X92672381Y-94585771D02*
X92720000Y-94395295D01*
X92720000Y-94395295D02*
X92767619Y-94300057D01*
X92767619Y-94300057D02*
X92815238Y-94252438D01*
X92815238Y-94252438D02*
X92910476Y-94204819D01*
X93672381Y-94538152D02*
X93672381Y-95204819D01*
X93672381Y-94633390D02*
X93720000Y-94585771D01*
X93720000Y-94585771D02*
X93815238Y-94538152D01*
X93815238Y-94538152D02*
X93958095Y-94538152D01*
X93958095Y-94538152D02*
X94053333Y-94585771D01*
X94053333Y-94585771D02*
X94100952Y-94681009D01*
X94100952Y-94681009D02*
X94100952Y-95204819D01*
X94434286Y-94538152D02*
X94815238Y-94538152D01*
X94577143Y-95204819D02*
X94577143Y-94347676D01*
X94577143Y-94347676D02*
X94624762Y-94252438D01*
X94624762Y-94252438D02*
X94720000Y-94204819D01*
X94720000Y-94204819D02*
X94815238Y-94204819D01*
X54414819Y-143833333D02*
X55129104Y-143833333D01*
X55129104Y-143833333D02*
X55271961Y-143880952D01*
X55271961Y-143880952D02*
X55367200Y-143976190D01*
X55367200Y-143976190D02*
X55414819Y-144119047D01*
X55414819Y-144119047D02*
X55414819Y-144214285D01*
X55414819Y-142833333D02*
X55414819Y-143404761D01*
X55414819Y-143119047D02*
X54414819Y-143119047D01*
X54414819Y-143119047D02*
X54557676Y-143214285D01*
X54557676Y-143214285D02*
X54652914Y-143309523D01*
X54652914Y-143309523D02*
X54700533Y-143404761D01*
X52874819Y-152714285D02*
X51874819Y-152714285D01*
X51874819Y-152714285D02*
X51874819Y-152476190D01*
X51874819Y-152476190D02*
X51922438Y-152333333D01*
X51922438Y-152333333D02*
X52017676Y-152238095D01*
X52017676Y-152238095D02*
X52112914Y-152190476D01*
X52112914Y-152190476D02*
X52303390Y-152142857D01*
X52303390Y-152142857D02*
X52446247Y-152142857D01*
X52446247Y-152142857D02*
X52636723Y-152190476D01*
X52636723Y-152190476D02*
X52731961Y-152238095D01*
X52731961Y-152238095D02*
X52827200Y-152333333D01*
X52827200Y-152333333D02*
X52874819Y-152476190D01*
X52874819Y-152476190D02*
X52874819Y-152714285D01*
X52779580Y-151142857D02*
X52827200Y-151190476D01*
X52827200Y-151190476D02*
X52874819Y-151333333D01*
X52874819Y-151333333D02*
X52874819Y-151428571D01*
X52874819Y-151428571D02*
X52827200Y-151571428D01*
X52827200Y-151571428D02*
X52731961Y-151666666D01*
X52731961Y-151666666D02*
X52636723Y-151714285D01*
X52636723Y-151714285D02*
X52446247Y-151761904D01*
X52446247Y-151761904D02*
X52303390Y-151761904D01*
X52303390Y-151761904D02*
X52112914Y-151714285D01*
X52112914Y-151714285D02*
X52017676Y-151666666D01*
X52017676Y-151666666D02*
X51922438Y-151571428D01*
X51922438Y-151571428D02*
X51874819Y-151428571D01*
X51874819Y-151428571D02*
X51874819Y-151333333D01*
X51874819Y-151333333D02*
X51922438Y-151190476D01*
X51922438Y-151190476D02*
X51970057Y-151142857D01*
X52874819Y-149952380D02*
X51874819Y-149952380D01*
X51874819Y-149952380D02*
X51874819Y-149571428D01*
X51874819Y-149571428D02*
X51922438Y-149476190D01*
X51922438Y-149476190D02*
X51970057Y-149428571D01*
X51970057Y-149428571D02*
X52065295Y-149380952D01*
X52065295Y-149380952D02*
X52208152Y-149380952D01*
X52208152Y-149380952D02*
X52303390Y-149428571D01*
X52303390Y-149428571D02*
X52351009Y-149476190D01*
X52351009Y-149476190D02*
X52398628Y-149571428D01*
X52398628Y-149571428D02*
X52398628Y-149952380D01*
X51874819Y-149047618D02*
X52874819Y-148809523D01*
X52874819Y-148809523D02*
X52160533Y-148619047D01*
X52160533Y-148619047D02*
X52874819Y-148428571D01*
X52874819Y-148428571D02*
X51874819Y-148190476D01*
X52874819Y-147238095D02*
X52398628Y-147571428D01*
X52874819Y-147809523D02*
X51874819Y-147809523D01*
X51874819Y-147809523D02*
X51874819Y-147428571D01*
X51874819Y-147428571D02*
X51922438Y-147333333D01*
X51922438Y-147333333D02*
X51970057Y-147285714D01*
X51970057Y-147285714D02*
X52065295Y-147238095D01*
X52065295Y-147238095D02*
X52208152Y-147238095D01*
X52208152Y-147238095D02*
X52303390Y-147285714D01*
X52303390Y-147285714D02*
X52351009Y-147333333D01*
X52351009Y-147333333D02*
X52398628Y-147428571D01*
X52398628Y-147428571D02*
X52398628Y-147809523D01*
X63109580Y-150166666D02*
X63157200Y-150214285D01*
X63157200Y-150214285D02*
X63204819Y-150357142D01*
X63204819Y-150357142D02*
X63204819Y-150452380D01*
X63204819Y-150452380D02*
X63157200Y-150595237D01*
X63157200Y-150595237D02*
X63061961Y-150690475D01*
X63061961Y-150690475D02*
X62966723Y-150738094D01*
X62966723Y-150738094D02*
X62776247Y-150785713D01*
X62776247Y-150785713D02*
X62633390Y-150785713D01*
X62633390Y-150785713D02*
X62442914Y-150738094D01*
X62442914Y-150738094D02*
X62347676Y-150690475D01*
X62347676Y-150690475D02*
X62252438Y-150595237D01*
X62252438Y-150595237D02*
X62204819Y-150452380D01*
X62204819Y-150452380D02*
X62204819Y-150357142D01*
X62204819Y-150357142D02*
X62252438Y-150214285D01*
X62252438Y-150214285D02*
X62300057Y-150166666D01*
X63204819Y-149214285D02*
X63204819Y-149785713D01*
X63204819Y-149499999D02*
X62204819Y-149499999D01*
X62204819Y-149499999D02*
X62347676Y-149595237D01*
X62347676Y-149595237D02*
X62442914Y-149690475D01*
X62442914Y-149690475D02*
X62490533Y-149785713D01*
X70704819Y-152023809D02*
X70704819Y-152595237D01*
X70704819Y-152309523D02*
X69704819Y-152309523D01*
X69704819Y-152309523D02*
X69847676Y-152404761D01*
X69847676Y-152404761D02*
X69942914Y-152499999D01*
X69942914Y-152499999D02*
X69990533Y-152595237D01*
X69704819Y-151404761D02*
X69704819Y-151309523D01*
X69704819Y-151309523D02*
X69752438Y-151214285D01*
X69752438Y-151214285D02*
X69800057Y-151166666D01*
X69800057Y-151166666D02*
X69895295Y-151119047D01*
X69895295Y-151119047D02*
X70085771Y-151071428D01*
X70085771Y-151071428D02*
X70323866Y-151071428D01*
X70323866Y-151071428D02*
X70514342Y-151119047D01*
X70514342Y-151119047D02*
X70609580Y-151166666D01*
X70609580Y-151166666D02*
X70657200Y-151214285D01*
X70657200Y-151214285D02*
X70704819Y-151309523D01*
X70704819Y-151309523D02*
X70704819Y-151404761D01*
X70704819Y-151404761D02*
X70657200Y-151499999D01*
X70657200Y-151499999D02*
X70609580Y-151547618D01*
X70609580Y-151547618D02*
X70514342Y-151595237D01*
X70514342Y-151595237D02*
X70323866Y-151642856D01*
X70323866Y-151642856D02*
X70085771Y-151642856D01*
X70085771Y-151642856D02*
X69895295Y-151595237D01*
X69895295Y-151595237D02*
X69800057Y-151547618D01*
X69800057Y-151547618D02*
X69752438Y-151499999D01*
X69752438Y-151499999D02*
X69704819Y-151404761D01*
X69704819Y-150452380D02*
X69704819Y-150357142D01*
X69704819Y-150357142D02*
X69752438Y-150261904D01*
X69752438Y-150261904D02*
X69800057Y-150214285D01*
X69800057Y-150214285D02*
X69895295Y-150166666D01*
X69895295Y-150166666D02*
X70085771Y-150119047D01*
X70085771Y-150119047D02*
X70323866Y-150119047D01*
X70323866Y-150119047D02*
X70514342Y-150166666D01*
X70514342Y-150166666D02*
X70609580Y-150214285D01*
X70609580Y-150214285D02*
X70657200Y-150261904D01*
X70657200Y-150261904D02*
X70704819Y-150357142D01*
X70704819Y-150357142D02*
X70704819Y-150452380D01*
X70704819Y-150452380D02*
X70657200Y-150547618D01*
X70657200Y-150547618D02*
X70609580Y-150595237D01*
X70609580Y-150595237D02*
X70514342Y-150642856D01*
X70514342Y-150642856D02*
X70323866Y-150690475D01*
X70323866Y-150690475D02*
X70085771Y-150690475D01*
X70085771Y-150690475D02*
X69895295Y-150642856D01*
X69895295Y-150642856D02*
X69800057Y-150595237D01*
X69800057Y-150595237D02*
X69752438Y-150547618D01*
X69752438Y-150547618D02*
X69704819Y-150452380D01*
X69704819Y-149499999D02*
X69704819Y-149404761D01*
X69704819Y-149404761D02*
X69752438Y-149309523D01*
X69752438Y-149309523D02*
X69800057Y-149261904D01*
X69800057Y-149261904D02*
X69895295Y-149214285D01*
X69895295Y-149214285D02*
X70085771Y-149166666D01*
X70085771Y-149166666D02*
X70323866Y-149166666D01*
X70323866Y-149166666D02*
X70514342Y-149214285D01*
X70514342Y-149214285D02*
X70609580Y-149261904D01*
X70609580Y-149261904D02*
X70657200Y-149309523D01*
X70657200Y-149309523D02*
X70704819Y-149404761D01*
X70704819Y-149404761D02*
X70704819Y-149499999D01*
X70704819Y-149499999D02*
X70657200Y-149595237D01*
X70657200Y-149595237D02*
X70609580Y-149642856D01*
X70609580Y-149642856D02*
X70514342Y-149690475D01*
X70514342Y-149690475D02*
X70323866Y-149738094D01*
X70323866Y-149738094D02*
X70085771Y-149738094D01*
X70085771Y-149738094D02*
X69895295Y-149690475D01*
X69895295Y-149690475D02*
X69800057Y-149642856D01*
X69800057Y-149642856D02*
X69752438Y-149595237D01*
X69752438Y-149595237D02*
X69704819Y-149499999D01*
X70038152Y-148309523D02*
X70704819Y-148309523D01*
X70038152Y-148738094D02*
X70561961Y-148738094D01*
X70561961Y-148738094D02*
X70657200Y-148690475D01*
X70657200Y-148690475D02*
X70704819Y-148595237D01*
X70704819Y-148595237D02*
X70704819Y-148452380D01*
X70704819Y-148452380D02*
X70657200Y-148357142D01*
X70657200Y-148357142D02*
X70609580Y-148309523D01*
X70181009Y-147499999D02*
X70181009Y-147833332D01*
X70704819Y-147833332D02*
X69704819Y-147833332D01*
X69704819Y-147833332D02*
X69704819Y-147357142D01*
X100544819Y-89333333D02*
X101259104Y-89333333D01*
X101259104Y-89333333D02*
X101401961Y-89380952D01*
X101401961Y-89380952D02*
X101497200Y-89476190D01*
X101497200Y-89476190D02*
X101544819Y-89619047D01*
X101544819Y-89619047D02*
X101544819Y-89714285D01*
X100878152Y-88428571D02*
X101544819Y-88428571D01*
X100497200Y-88666666D02*
X101211485Y-88904761D01*
X101211485Y-88904761D02*
X101211485Y-88285714D01*
X104182856Y-86454819D02*
X103611428Y-86454819D01*
X103897142Y-86454819D02*
X103897142Y-85454819D01*
X103897142Y-85454819D02*
X103801904Y-85597676D01*
X103801904Y-85597676D02*
X103706666Y-85692914D01*
X103706666Y-85692914D02*
X103611428Y-85740533D01*
X105039999Y-85454819D02*
X104849523Y-85454819D01*
X104849523Y-85454819D02*
X104754285Y-85502438D01*
X104754285Y-85502438D02*
X104706666Y-85550057D01*
X104706666Y-85550057D02*
X104611428Y-85692914D01*
X104611428Y-85692914D02*
X104563809Y-85883390D01*
X104563809Y-85883390D02*
X104563809Y-86264342D01*
X104563809Y-86264342D02*
X104611428Y-86359580D01*
X104611428Y-86359580D02*
X104659047Y-86407200D01*
X104659047Y-86407200D02*
X104754285Y-86454819D01*
X104754285Y-86454819D02*
X104944761Y-86454819D01*
X104944761Y-86454819D02*
X105039999Y-86407200D01*
X105039999Y-86407200D02*
X105087618Y-86359580D01*
X105087618Y-86359580D02*
X105135237Y-86264342D01*
X105135237Y-86264342D02*
X105135237Y-86026247D01*
X105135237Y-86026247D02*
X105087618Y-85931009D01*
X105087618Y-85931009D02*
X105039999Y-85883390D01*
X105039999Y-85883390D02*
X104944761Y-85835771D01*
X104944761Y-85835771D02*
X104754285Y-85835771D01*
X104754285Y-85835771D02*
X104659047Y-85883390D01*
X104659047Y-85883390D02*
X104611428Y-85931009D01*
X104611428Y-85931009D02*
X104563809Y-86026247D01*
X105468571Y-86454819D02*
X105992380Y-85788152D01*
X105468571Y-85788152D02*
X105992380Y-86454819D01*
X106801904Y-85788152D02*
X106801904Y-86454819D01*
X106563809Y-85407200D02*
X106325714Y-86121485D01*
X106325714Y-86121485D02*
X106944761Y-86121485D01*
X108563809Y-86454819D02*
X108087619Y-86454819D01*
X108087619Y-86454819D02*
X108087619Y-85454819D01*
X109468571Y-86359580D02*
X109420952Y-86407200D01*
X109420952Y-86407200D02*
X109278095Y-86454819D01*
X109278095Y-86454819D02*
X109182857Y-86454819D01*
X109182857Y-86454819D02*
X109040000Y-86407200D01*
X109040000Y-86407200D02*
X108944762Y-86311961D01*
X108944762Y-86311961D02*
X108897143Y-86216723D01*
X108897143Y-86216723D02*
X108849524Y-86026247D01*
X108849524Y-86026247D02*
X108849524Y-85883390D01*
X108849524Y-85883390D02*
X108897143Y-85692914D01*
X108897143Y-85692914D02*
X108944762Y-85597676D01*
X108944762Y-85597676D02*
X109040000Y-85502438D01*
X109040000Y-85502438D02*
X109182857Y-85454819D01*
X109182857Y-85454819D02*
X109278095Y-85454819D01*
X109278095Y-85454819D02*
X109420952Y-85502438D01*
X109420952Y-85502438D02*
X109468571Y-85550057D01*
X109897143Y-86454819D02*
X109897143Y-85454819D01*
X109897143Y-85454819D02*
X110135238Y-85454819D01*
X110135238Y-85454819D02*
X110278095Y-85502438D01*
X110278095Y-85502438D02*
X110373333Y-85597676D01*
X110373333Y-85597676D02*
X110420952Y-85692914D01*
X110420952Y-85692914D02*
X110468571Y-85883390D01*
X110468571Y-85883390D02*
X110468571Y-86026247D01*
X110468571Y-86026247D02*
X110420952Y-86216723D01*
X110420952Y-86216723D02*
X110373333Y-86311961D01*
X110373333Y-86311961D02*
X110278095Y-86407200D01*
X110278095Y-86407200D02*
X110135238Y-86454819D01*
X110135238Y-86454819D02*
X109897143Y-86454819D01*
X84104819Y-152803333D02*
X84819104Y-152803333D01*
X84819104Y-152803333D02*
X84961961Y-152850952D01*
X84961961Y-152850952D02*
X85057200Y-152946190D01*
X85057200Y-152946190D02*
X85104819Y-153089047D01*
X85104819Y-153089047D02*
X85104819Y-153184285D01*
X84200057Y-152374761D02*
X84152438Y-152327142D01*
X84152438Y-152327142D02*
X84104819Y-152231904D01*
X84104819Y-152231904D02*
X84104819Y-151993809D01*
X84104819Y-151993809D02*
X84152438Y-151898571D01*
X84152438Y-151898571D02*
X84200057Y-151850952D01*
X84200057Y-151850952D02*
X84295295Y-151803333D01*
X84295295Y-151803333D02*
X84390533Y-151803333D01*
X84390533Y-151803333D02*
X84533390Y-151850952D01*
X84533390Y-151850952D02*
X85104819Y-152422380D01*
X85104819Y-152422380D02*
X85104819Y-151803333D01*
X73169104Y-157809523D02*
X73169104Y-157333333D01*
X73454819Y-157904761D02*
X72454819Y-157571428D01*
X72454819Y-157571428D02*
X73454819Y-157238095D01*
X73454819Y-156904761D02*
X72454819Y-156904761D01*
X72454819Y-156904761D02*
X73169104Y-156571428D01*
X73169104Y-156571428D02*
X72454819Y-156238095D01*
X72454819Y-156238095D02*
X73454819Y-156238095D01*
X72550057Y-155809523D02*
X72502438Y-155761904D01*
X72502438Y-155761904D02*
X72454819Y-155666666D01*
X72454819Y-155666666D02*
X72454819Y-155428571D01*
X72454819Y-155428571D02*
X72502438Y-155333333D01*
X72502438Y-155333333D02*
X72550057Y-155285714D01*
X72550057Y-155285714D02*
X72645295Y-155238095D01*
X72645295Y-155238095D02*
X72740533Y-155238095D01*
X72740533Y-155238095D02*
X72883390Y-155285714D01*
X72883390Y-155285714D02*
X73454819Y-155857142D01*
X73454819Y-155857142D02*
X73454819Y-155238095D01*
X72454819Y-154904761D02*
X72454819Y-154285714D01*
X72454819Y-154285714D02*
X72835771Y-154619047D01*
X72835771Y-154619047D02*
X72835771Y-154476190D01*
X72835771Y-154476190D02*
X72883390Y-154380952D01*
X72883390Y-154380952D02*
X72931009Y-154333333D01*
X72931009Y-154333333D02*
X73026247Y-154285714D01*
X73026247Y-154285714D02*
X73264342Y-154285714D01*
X73264342Y-154285714D02*
X73359580Y-154333333D01*
X73359580Y-154333333D02*
X73407200Y-154380952D01*
X73407200Y-154380952D02*
X73454819Y-154476190D01*
X73454819Y-154476190D02*
X73454819Y-154761904D01*
X73454819Y-154761904D02*
X73407200Y-154857142D01*
X73407200Y-154857142D02*
X73359580Y-154904761D01*
X72454819Y-153666666D02*
X72454819Y-153571428D01*
X72454819Y-153571428D02*
X72502438Y-153476190D01*
X72502438Y-153476190D02*
X72550057Y-153428571D01*
X72550057Y-153428571D02*
X72645295Y-153380952D01*
X72645295Y-153380952D02*
X72835771Y-153333333D01*
X72835771Y-153333333D02*
X73073866Y-153333333D01*
X73073866Y-153333333D02*
X73264342Y-153380952D01*
X73264342Y-153380952D02*
X73359580Y-153428571D01*
X73359580Y-153428571D02*
X73407200Y-153476190D01*
X73407200Y-153476190D02*
X73454819Y-153571428D01*
X73454819Y-153571428D02*
X73454819Y-153666666D01*
X73454819Y-153666666D02*
X73407200Y-153761904D01*
X73407200Y-153761904D02*
X73359580Y-153809523D01*
X73359580Y-153809523D02*
X73264342Y-153857142D01*
X73264342Y-153857142D02*
X73073866Y-153904761D01*
X73073866Y-153904761D02*
X72835771Y-153904761D01*
X72835771Y-153904761D02*
X72645295Y-153857142D01*
X72645295Y-153857142D02*
X72550057Y-153809523D01*
X72550057Y-153809523D02*
X72502438Y-153761904D01*
X72502438Y-153761904D02*
X72454819Y-153666666D01*
X72550057Y-152952380D02*
X72502438Y-152904761D01*
X72502438Y-152904761D02*
X72454819Y-152809523D01*
X72454819Y-152809523D02*
X72454819Y-152571428D01*
X72454819Y-152571428D02*
X72502438Y-152476190D01*
X72502438Y-152476190D02*
X72550057Y-152428571D01*
X72550057Y-152428571D02*
X72645295Y-152380952D01*
X72645295Y-152380952D02*
X72740533Y-152380952D01*
X72740533Y-152380952D02*
X72883390Y-152428571D01*
X72883390Y-152428571D02*
X73454819Y-152999999D01*
X73454819Y-152999999D02*
X73454819Y-152380952D01*
X73454819Y-151190475D02*
X72788152Y-151190475D01*
X72454819Y-151190475D02*
X72502438Y-151238094D01*
X72502438Y-151238094D02*
X72550057Y-151190475D01*
X72550057Y-151190475D02*
X72502438Y-151142856D01*
X72502438Y-151142856D02*
X72454819Y-151190475D01*
X72454819Y-151190475D02*
X72550057Y-151190475D01*
X72788152Y-150714285D02*
X73454819Y-150714285D01*
X72883390Y-150714285D02*
X72835771Y-150666666D01*
X72835771Y-150666666D02*
X72788152Y-150571428D01*
X72788152Y-150571428D02*
X72788152Y-150428571D01*
X72788152Y-150428571D02*
X72835771Y-150333333D01*
X72835771Y-150333333D02*
X72931009Y-150285714D01*
X72931009Y-150285714D02*
X73454819Y-150285714D01*
X73407200Y-149857142D02*
X73454819Y-149761904D01*
X73454819Y-149761904D02*
X73454819Y-149571428D01*
X73454819Y-149571428D02*
X73407200Y-149476190D01*
X73407200Y-149476190D02*
X73311961Y-149428571D01*
X73311961Y-149428571D02*
X73264342Y-149428571D01*
X73264342Y-149428571D02*
X73169104Y-149476190D01*
X73169104Y-149476190D02*
X73121485Y-149571428D01*
X73121485Y-149571428D02*
X73121485Y-149714285D01*
X73121485Y-149714285D02*
X73073866Y-149809523D01*
X73073866Y-149809523D02*
X72978628Y-149857142D01*
X72978628Y-149857142D02*
X72931009Y-149857142D01*
X72931009Y-149857142D02*
X72835771Y-149809523D01*
X72835771Y-149809523D02*
X72788152Y-149714285D01*
X72788152Y-149714285D02*
X72788152Y-149571428D01*
X72788152Y-149571428D02*
X72835771Y-149476190D01*
X73454819Y-148999999D02*
X72788152Y-148999999D01*
X72454819Y-148999999D02*
X72502438Y-149047618D01*
X72502438Y-149047618D02*
X72550057Y-148999999D01*
X72550057Y-148999999D02*
X72502438Y-148952380D01*
X72502438Y-148952380D02*
X72454819Y-148999999D01*
X72454819Y-148999999D02*
X72550057Y-148999999D01*
X73454819Y-148095238D02*
X72454819Y-148095238D01*
X73407200Y-148095238D02*
X73454819Y-148190476D01*
X73454819Y-148190476D02*
X73454819Y-148380952D01*
X73454819Y-148380952D02*
X73407200Y-148476190D01*
X73407200Y-148476190D02*
X73359580Y-148523809D01*
X73359580Y-148523809D02*
X73264342Y-148571428D01*
X73264342Y-148571428D02*
X72978628Y-148571428D01*
X72978628Y-148571428D02*
X72883390Y-148523809D01*
X72883390Y-148523809D02*
X72835771Y-148476190D01*
X72835771Y-148476190D02*
X72788152Y-148380952D01*
X72788152Y-148380952D02*
X72788152Y-148190476D01*
X72788152Y-148190476D02*
X72835771Y-148095238D01*
X73407200Y-147238095D02*
X73454819Y-147333333D01*
X73454819Y-147333333D02*
X73454819Y-147523809D01*
X73454819Y-147523809D02*
X73407200Y-147619047D01*
X73407200Y-147619047D02*
X73311961Y-147666666D01*
X73311961Y-147666666D02*
X72931009Y-147666666D01*
X72931009Y-147666666D02*
X72835771Y-147619047D01*
X72835771Y-147619047D02*
X72788152Y-147523809D01*
X72788152Y-147523809D02*
X72788152Y-147333333D01*
X72788152Y-147333333D02*
X72835771Y-147238095D01*
X72835771Y-147238095D02*
X72931009Y-147190476D01*
X72931009Y-147190476D02*
X73026247Y-147190476D01*
X73026247Y-147190476D02*
X73121485Y-147666666D01*
D12*
%TO.C,R5*%
X73040000Y-105130000D02*
X79580000Y-105130000D01*
X73040000Y-105460000D02*
X73040000Y-105130000D01*
X73040000Y-107540000D02*
X73040000Y-107870000D01*
X73040000Y-107870000D02*
X79580000Y-107870000D01*
X79580000Y-105130000D02*
X79580000Y-105460000D01*
X79580000Y-107870000D02*
X79580000Y-107540000D01*
%TO.C,R1*%
X88370000Y-153000000D02*
X88370000Y-159540000D01*
X88040000Y-153000000D02*
X88370000Y-153000000D01*
X85960000Y-153000000D02*
X85630000Y-153000000D01*
X85630000Y-153000000D02*
X85630000Y-159540000D01*
X88370000Y-159540000D02*
X88040000Y-159540000D01*
X85630000Y-159540000D02*
X85960000Y-159540000D01*
%TO.C,R3*%
X104040000Y-94130000D02*
X110580000Y-94130000D01*
X104040000Y-94460000D02*
X104040000Y-94130000D01*
X104040000Y-96540000D02*
X104040000Y-96870000D01*
X104040000Y-96870000D02*
X110580000Y-96870000D01*
X110580000Y-94130000D02*
X110580000Y-94460000D01*
X110580000Y-96870000D02*
X110580000Y-96540000D01*
%TO.C,R4*%
X106540000Y-99130000D02*
X113080000Y-99130000D01*
X106540000Y-99460000D02*
X106540000Y-99130000D01*
X106540000Y-101540000D02*
X106540000Y-101870000D01*
X106540000Y-101870000D02*
X113080000Y-101870000D01*
X113080000Y-99130000D02*
X113080000Y-99460000D01*
X113080000Y-101870000D02*
X113080000Y-101540000D01*
%TO.C,R2*%
X97370000Y-153040000D02*
X97370000Y-159580000D01*
X97040000Y-153040000D02*
X97370000Y-153040000D01*
X94960000Y-153040000D02*
X94630000Y-153040000D01*
X94630000Y-153040000D02*
X94630000Y-159580000D01*
X97370000Y-159580000D02*
X97040000Y-159580000D01*
X94630000Y-159580000D02*
X94960000Y-159580000D01*
%TO.C,A1*%
X84510000Y-103970000D02*
X84510000Y-122010000D01*
X84510000Y-122010000D02*
X87180000Y-122010000D01*
X87180000Y-106640000D02*
X87180000Y-103970000D01*
X87180000Y-106640000D02*
X125280000Y-106640000D01*
X87180000Y-119340000D02*
X87180000Y-122010000D01*
X89720000Y-119340000D02*
X87180000Y-119340000D01*
X89720000Y-119340000D02*
X89720000Y-122010000D01*
X89720000Y-119340000D02*
X125280000Y-119340000D01*
X89720000Y-122010000D02*
X127950000Y-122010000D01*
X120070000Y-109050000D02*
X130490000Y-109050000D01*
X120070000Y-116930000D02*
X120070000Y-109050000D01*
X125280000Y-106640000D02*
X125280000Y-103970000D01*
X125280000Y-119340000D02*
X125280000Y-122010000D01*
X127950000Y-103970000D02*
X84510000Y-103970000D01*
X127950000Y-103970000D02*
X127950000Y-109050000D01*
X127950000Y-122010000D02*
X127950000Y-116930000D01*
X130490000Y-109050000D02*
X130490000Y-116930000D01*
X130490000Y-116930000D02*
X120070000Y-116930000D01*
%TO.C,SW2*%
X66170000Y-102630000D02*
X67500000Y-102630000D01*
X66170000Y-103960000D02*
X66170000Y-102630000D01*
X66170000Y-105230000D02*
X66170000Y-110370000D01*
X66170000Y-105230000D02*
X68830000Y-105230000D01*
X66170000Y-110370000D02*
X68830000Y-110370000D01*
X68830000Y-105230000D02*
X68830000Y-110370000D01*
%TO.C,SW1*%
X80125000Y-91670000D02*
X80125000Y-94330000D01*
X82725000Y-91670000D02*
X80125000Y-91670000D01*
X82725000Y-91670000D02*
X82725000Y-94330000D01*
X82725000Y-94330000D02*
X80125000Y-94330000D01*
X83995000Y-91670000D02*
X85325000Y-91670000D01*
X85325000Y-91670000D02*
X85325000Y-93000000D01*
%TO.C,J3*%
X111310000Y-144960000D02*
X111310000Y-160200000D01*
X104960000Y-144960000D02*
X104960000Y-160200000D01*
X103690000Y-160200000D02*
X111310000Y-160200000D01*
X103690000Y-144960000D02*
X111310000Y-144960000D01*
X103690000Y-144960000D02*
X103690000Y-160200000D01*
%TO.C,J6*%
X118670000Y-127630000D02*
X120000000Y-127630000D01*
X118670000Y-128960000D02*
X118670000Y-127630000D01*
X118670000Y-130230000D02*
X118670000Y-142990000D01*
X118670000Y-130230000D02*
X121330000Y-130230000D01*
X118670000Y-142990000D02*
X121330000Y-142990000D01*
X121330000Y-130230000D02*
X121330000Y-142990000D01*
%TO.C,J5*%
X96670000Y-80890000D02*
X96670000Y-63050000D01*
X99330000Y-63050000D02*
X96670000Y-63050000D01*
X99330000Y-80890000D02*
X96670000Y-80890000D01*
X99330000Y-80890000D02*
X99330000Y-63050000D01*
X99330000Y-82160000D02*
X99330000Y-83490000D01*
X99330000Y-83490000D02*
X98000000Y-83490000D01*
%TO.C,J7*%
X58670000Y-102685000D02*
X60000000Y-102685000D01*
X58670000Y-104015000D02*
X58670000Y-102685000D01*
X58670000Y-105285000D02*
X58670000Y-110425000D01*
X58670000Y-105285000D02*
X61330000Y-105285000D01*
X58670000Y-110425000D02*
X61330000Y-110425000D01*
X61330000Y-105285000D02*
X61330000Y-110425000D01*
%TO.C,C2*%
X91600000Y-95945000D02*
X91600000Y-95880000D01*
X91600000Y-98120000D02*
X91600000Y-98055000D01*
X94840000Y-95880000D02*
X91600000Y-95880000D01*
X94840000Y-95945000D02*
X94840000Y-95880000D01*
X94840000Y-98120000D02*
X91600000Y-98120000D01*
X94840000Y-98120000D02*
X94840000Y-98055000D01*
%TO.C,J1*%
X53690000Y-144920000D02*
X53690000Y-155080000D01*
X53690000Y-155080000D02*
X61310000Y-155080000D01*
X54960000Y-155080000D02*
X54960000Y-144920000D01*
X61310000Y-144920000D02*
X53690000Y-144920000D01*
X61310000Y-155080000D02*
X61310000Y-144920000D01*
%TO.C,C1*%
X64775000Y-152554775D02*
X65275000Y-152554775D01*
X65025000Y-152804775D02*
X65025000Y-152304775D01*
X65440000Y-152395997D02*
G75*
G02*
X65440000Y-147604003I1060001J2395997D01*
G01*
X67560000Y-147604003D02*
G75*
G02*
X67560000Y-152395997I-1060001J-2395997D01*
G01*
%TO.C,J4*%
X102090000Y-90330000D02*
X102090000Y-89000000D01*
X103420000Y-90330000D02*
X102090000Y-90330000D01*
X104690000Y-87670000D02*
X112370000Y-87670000D01*
X104690000Y-90330000D02*
X104690000Y-87670000D01*
X104690000Y-90330000D02*
X112370000Y-90330000D01*
X112370000Y-90330000D02*
X112370000Y-87670000D01*
%TO.C,J2*%
X76190000Y-144880000D02*
X76190000Y-160120000D01*
X76190000Y-144880000D02*
X83810000Y-144880000D01*
X76190000Y-160120000D02*
X83810000Y-160120000D01*
X77460000Y-144880000D02*
X77460000Y-160120000D01*
X83810000Y-144880000D02*
X83810000Y-160120000D01*
%TD*%
M02*
