%TF.GenerationSoftware,KiCad,Pcbnew,8.0.2*%
%TF.CreationDate,2024-06-03T18:55:52+02:00*%
%TF.ProjectId,Taupunkt,54617570-756e-46b7-942e-6b696361645f,rev?*%
%TF.SameCoordinates,Original*%
%TF.FileFunction,Copper,L1,Top*%
%TF.FilePolarity,Positive*%
%FSLAX46Y46*%
G04 Gerber Fmt 4.6, Leading zero omitted, Abs format (unit mm)*
G04 Created by KiCad (PCBNEW 8.0.2) date 2024-06-03 18:55:52*
%MOMM*%
%LPD*%
G01*
G04 APERTURE LIST*
%TA.AperFunction,ComponentPad*%
%ADD10C,1.600000*%
%TD*%
%TA.AperFunction,ComponentPad*%
%ADD11O,1.600000X1.600000*%
%TD*%
%TA.AperFunction,ComponentPad*%
%ADD12R,1.600000X1.600000*%
%TD*%
%TA.AperFunction,ComponentPad*%
%ADD13R,1.700000X1.700000*%
%TD*%
%TA.AperFunction,ComponentPad*%
%ADD14O,1.700000X1.700000*%
%TD*%
%TA.AperFunction,ComponentPad*%
%ADD15C,3.000000*%
%TD*%
%TA.AperFunction,ComponentPad*%
%ADD16R,3.000000X3.000000*%
%TD*%
%TA.AperFunction,Conductor*%
%ADD17C,0.200000*%
%TD*%
%TA.AperFunction,Conductor*%
%ADD18C,1.000000*%
%TD*%
%TA.AperFunction,Conductor*%
%ADD19C,0.500000*%
%TD*%
G04 APERTURE END LIST*
D10*
%TO.P,R5,1*%
%TO.N,/RelSwitch*%
X72500000Y-106500000D03*
D11*
%TO.P,R5,2*%
X80120000Y-106500000D03*
%TD*%
D10*
%TO.P,R1,1*%
%TO.N,/<NO NET>*%
X87000000Y-152460000D03*
D11*
%TO.P,R1,2*%
%TO.N,/D4 - Data inside*%
X87000000Y-160080000D03*
%TD*%
D10*
%TO.P,R3,1*%
%TO.N,/SCL*%
X103500000Y-95500000D03*
D11*
%TO.P,R3,2*%
%TO.N,/<NO NET>*%
X111120000Y-95500000D03*
%TD*%
D10*
%TO.P,R4,1*%
%TO.N,/SDA*%
X106000000Y-100500000D03*
D11*
%TO.P,R4,2*%
%TO.N,/<NO NET>*%
X113620000Y-100500000D03*
%TD*%
D10*
%TO.P,R2,1*%
%TO.N,/<NO NET>*%
X96000000Y-152500000D03*
D11*
%TO.P,R2,2*%
%TO.N,/D5 - Data outside*%
X96000000Y-160120000D03*
%TD*%
D12*
%TO.P,A1,1,D1/TX*%
%TO.N,unconnected-(A1-D1{slash}TX-Pad1)*%
X88450000Y-120610000D03*
D11*
%TO.P,A1,2,D0/RX*%
%TO.N,unconnected-(A1-D0{slash}RX-Pad2)*%
X90990000Y-120610000D03*
%TO.P,A1,3,~{RESET}*%
%TO.N,unconnected-(A1-~{RESET}-Pad3)*%
X93530000Y-120610000D03*
%TO.P,A1,4,GND*%
%TO.N,unconnected-(A1-GND-Pad4)*%
X96070000Y-120610000D03*
%TO.P,A1,5,D2*%
%TO.N,unconnected-(A1-D2-Pad5)*%
X98610000Y-120610000D03*
%TO.P,A1,6,D3*%
%TO.N,unconnected-(A1-D3-Pad6)*%
X101150000Y-120610000D03*
%TO.P,A1,7,D4*%
%TO.N,/D4 - Data inside*%
X103690000Y-120610000D03*
%TO.P,A1,8,D5*%
%TO.N,/D5 - Data outside*%
X106230000Y-120610000D03*
%TO.P,A1,9,D6*%
%TO.N,/RelSwitch*%
X108770000Y-120610000D03*
%TO.P,A1,10,D7*%
%TO.N,unconnected-(A1-D7-Pad10)*%
X111310000Y-120610000D03*
%TO.P,A1,11,D8*%
%TO.N,unconnected-(A1-D8-Pad11)*%
X113850000Y-120610000D03*
%TO.P,A1,12,D9*%
%TO.N,unconnected-(A1-D9-Pad12)*%
X116390000Y-120610000D03*
%TO.P,A1,13,D10*%
%TO.N,/CS*%
X118930000Y-120610000D03*
%TO.P,A1,14,D11*%
%TO.N,/MOSI*%
X121470000Y-120610000D03*
%TO.P,A1,15,D12*%
%TO.N,/MISO*%
X124010000Y-120610000D03*
%TO.P,A1,16,D13*%
%TO.N,/SCK*%
X124010000Y-105370000D03*
%TO.P,A1,17,3V3*%
%TO.N,unconnected-(A1-3V3-Pad17)*%
X121470000Y-105370000D03*
%TO.P,A1,18,AREF*%
%TO.N,unconnected-(A1-AREF-Pad18)*%
X118930000Y-105370000D03*
%TO.P,A1,19,A0*%
%TO.N,unconnected-(A1-A0-Pad19)*%
X116390000Y-105370000D03*
%TO.P,A1,20,A1*%
%TO.N,unconnected-(A1-A1-Pad20)*%
X113850000Y-105370000D03*
%TO.P,A1,21,A2*%
%TO.N,unconnected-(A1-A2-Pad21)*%
X111310000Y-105370000D03*
%TO.P,A1,22,A3*%
%TO.N,unconnected-(A1-A3-Pad22)*%
X108770000Y-105370000D03*
%TO.P,A1,23,A4*%
%TO.N,/SDA*%
X106230000Y-105370000D03*
%TO.P,A1,24,A5*%
%TO.N,/SCL*%
X103690000Y-105370000D03*
%TO.P,A1,25,A6*%
%TO.N,unconnected-(A1-A6-Pad25)*%
X101150000Y-105370000D03*
%TO.P,A1,26,A7*%
%TO.N,unconnected-(A1-A7-Pad26)*%
X98610000Y-105370000D03*
%TO.P,A1,27,+5V*%
%TO.N,/<NO NET>*%
X96070000Y-105370000D03*
%TO.P,A1,28,~{RESET}*%
%TO.N,Net-(A1-~{RESET}-Pad28)*%
X93530000Y-105370000D03*
%TO.P,A1,29,GND*%
%TO.N,/GND*%
X90990000Y-105370000D03*
%TO.P,A1,30,VIN*%
%TO.N,unconnected-(A1-VIN-Pad30)*%
X88450000Y-105370000D03*
%TD*%
D13*
%TO.P,SW2,1,1*%
%TO.N,/GND*%
X67500000Y-103960000D03*
D14*
%TO.P,SW2,2,3*%
%TO.N,/RelSwitch*%
X67500000Y-106500000D03*
%TO.P,SW2,3,4*%
%TO.N,/<NO NET>*%
X67500000Y-109040000D03*
%TD*%
D13*
%TO.P,SW1,1,1*%
%TO.N,Net-(A1-~{RESET}-Pad28)*%
X83995000Y-93000000D03*
D14*
%TO.P,SW1,2,2*%
%TO.N,/GND*%
X81455000Y-93000000D03*
%TD*%
D15*
%TO.P,J3,3,Pin_3*%
%TO.N,/D5 - Data outside*%
X107500000Y-157660000D03*
%TO.P,J3,2,Pin_2*%
%TO.N,/<NO NET>*%
X107500000Y-152580000D03*
D16*
%TO.P,J3,1,Pin_1*%
%TO.N,/GND*%
X107500000Y-147500000D03*
%TD*%
D13*
%TO.P,J6,1,Pin_1*%
%TO.N,/CS*%
X120000000Y-128960000D03*
D14*
%TO.P,J6,2,Pin_2*%
%TO.N,/SCK*%
X120000000Y-131500000D03*
%TO.P,J6,3,Pin_3*%
%TO.N,/MOSI*%
X120000000Y-134040000D03*
%TO.P,J6,4,Pin_4*%
%TO.N,/MISO*%
X120000000Y-136580000D03*
%TO.P,J6,5,Pin_5*%
%TO.N,/<NO NET>*%
X120000000Y-139120000D03*
%TO.P,J6,6,Pin_6*%
%TO.N,/GND*%
X120000000Y-141660000D03*
%TD*%
D13*
%TO.P,J5,1,Pin_1*%
%TO.N,/TX*%
X98000000Y-82160000D03*
D14*
%TO.P,J5,2,Pin_2*%
%TO.N,/RX*%
X98000000Y-79620000D03*
%TO.P,J5,3,Pin_3*%
%TO.N,/SCL*%
X98000000Y-77080000D03*
%TO.P,J5,4,Pin_4*%
%TO.N,/SDA*%
X98000000Y-74540000D03*
%TO.P,J5,5,Pin_5*%
%TO.N,unconnected-(J5-Pin_5-Pad5)*%
X98000000Y-72000000D03*
%TO.P,J5,6,Pin_6*%
%TO.N,unconnected-(J5-Pin_6-Pad6)*%
X98000000Y-69460000D03*
%TO.P,J5,7,Pin_7*%
%TO.N,/GND*%
X98000000Y-66920000D03*
%TO.P,J5,8,Pin_8*%
%TO.N,/<NO NET>*%
X98000000Y-64380000D03*
%TD*%
D13*
%TO.P,J7,1,Pin_1*%
%TO.N,/GND*%
X60000000Y-104015000D03*
D14*
%TO.P,J7,2,Pin_2*%
%TO.N,/RelSwitch*%
X60000000Y-106555000D03*
%TO.P,J7,3,Pin_3*%
%TO.N,/<NO NET>*%
X60000000Y-109095000D03*
%TD*%
D10*
%TO.P,C2,1*%
%TO.N,/<NO NET>*%
X94470000Y-97000000D03*
%TO.P,C2,2*%
%TO.N,/GND*%
X91970000Y-97000000D03*
%TD*%
D16*
%TO.P,J1,1,Pin_1*%
%TO.N,/GND*%
X57500000Y-147460000D03*
D15*
%TO.P,J1,2,Pin_2*%
%TO.N,/<NO NET>*%
X57500000Y-152540000D03*
%TD*%
D12*
%TO.P,C1,1*%
%TO.N,/<NO NET>*%
X66500000Y-152500000D03*
D10*
%TO.P,C1,2*%
%TO.N,/GND*%
X66500000Y-147500000D03*
%TD*%
D13*
%TO.P,J4,1,Pin_1*%
%TO.N,/SCL*%
X103420000Y-89000000D03*
D14*
%TO.P,J4,2,Pin_2*%
%TO.N,/SDA*%
X105960000Y-89000000D03*
%TO.P,J4,3,Pin_3*%
%TO.N,/GND*%
X108500000Y-89000000D03*
%TO.P,J4,4,Pin_4*%
%TO.N,/<NO NET>*%
X111040000Y-89000000D03*
%TD*%
D16*
%TO.P,J2,1,Pin_1*%
%TO.N,/GND*%
X80000000Y-147420000D03*
D15*
%TO.P,J2,2,Pin_2*%
%TO.N,/<NO NET>*%
X80000000Y-152500000D03*
%TO.P,J2,3,Pin_3*%
%TO.N,/D4 - Data inside*%
X80000000Y-157580000D03*
%TD*%
D17*
%TO.N,/RelSwitch*%
X67500000Y-106500000D02*
X72500000Y-106500000D01*
%TO.N,Net-(A1-~{RESET}-Pad28)*%
X93500000Y-107500000D02*
X93530000Y-107470000D01*
X83995000Y-107500000D02*
X93500000Y-107500000D01*
X83995000Y-93000000D02*
X83995000Y-107500000D01*
X93530000Y-107470000D02*
X93530000Y-105370000D01*
%TO.N,/D5 - Data outside*%
X99500000Y-160000000D02*
X99500000Y-157580000D01*
X99500000Y-157580000D02*
X107420000Y-157580000D01*
X99380000Y-160120000D02*
X99500000Y-160000000D01*
X96000000Y-160120000D02*
X99380000Y-160120000D01*
%TO.N,/D4 - Data inside*%
X91500000Y-160000000D02*
X91500000Y-157500000D01*
X91420000Y-160080000D02*
X91500000Y-160000000D01*
X87000000Y-160080000D02*
X91420000Y-160080000D01*
D18*
%TO.N,/<NO NET>*%
X116160000Y-100500000D02*
X113620000Y-100500000D01*
D17*
%TO.N,/SDA*%
X105960000Y-99960000D02*
X105960000Y-89000000D01*
X106000000Y-100000000D02*
X105960000Y-99960000D01*
X106000000Y-100500000D02*
X106000000Y-100000000D01*
X106230000Y-100730000D02*
X106000000Y-100500000D01*
X106230000Y-105370000D02*
X106230000Y-100730000D01*
%TO.N,/SCL*%
X103500000Y-89580000D02*
X103500000Y-95500000D01*
X103420000Y-89500000D02*
X103500000Y-89580000D01*
X103420000Y-89000000D02*
X103420000Y-89500000D01*
X103690000Y-95690000D02*
X103690000Y-105370000D01*
X103500000Y-95500000D02*
X103690000Y-95690000D01*
%TO.N,/SDA*%
X106230000Y-101230000D02*
X106230000Y-105370000D01*
X106000000Y-101000000D02*
X106230000Y-101230000D01*
X106000000Y-100500000D02*
X106000000Y-101000000D01*
%TO.N,/SCL*%
X103420000Y-90151700D02*
X103500000Y-90231700D01*
X103420000Y-89000000D02*
X103420000Y-90151700D01*
D18*
%TO.N,/<NO NET>*%
X111120000Y-95500000D02*
X116160000Y-95500000D01*
X111080000Y-95540000D02*
X111120000Y-95500000D01*
D19*
X59500000Y-152540000D02*
X57500000Y-152540000D01*
D18*
X66500000Y-152500000D02*
X59540000Y-152500000D01*
X59540000Y-152500000D02*
X59500000Y-152540000D01*
D17*
%TO.N,/MOSI*%
X121470000Y-124000000D02*
X121470000Y-120610000D01*
X117500000Y-134040000D02*
X117500000Y-124000000D01*
X117500000Y-124000000D02*
X121470000Y-124000000D01*
X120000000Y-134040000D02*
X117500000Y-134040000D01*
%TO.N,/D4 - Data inside*%
X87000000Y-157540000D02*
X91460000Y-157540000D01*
X80040000Y-157540000D02*
X87000000Y-157540000D01*
X91460000Y-157540000D02*
X91500000Y-157500000D01*
X91500000Y-123500000D02*
X103690000Y-123500000D01*
X80000000Y-157580000D02*
X80040000Y-157540000D01*
X91500000Y-157500000D02*
X91500000Y-123500000D01*
X103690000Y-123500000D02*
X103690000Y-120610000D01*
%TO.N,/MISO*%
X123920000Y-136580000D02*
X124010000Y-136490000D01*
X124010000Y-136490000D02*
X124010000Y-120610000D01*
X120000000Y-136580000D02*
X123920000Y-136580000D01*
D18*
%TO.N,/<NO NET>*%
X117000000Y-139120000D02*
X120000000Y-139120000D01*
X117000000Y-152500000D02*
X117000000Y-139120000D01*
X116160000Y-95500000D02*
X116160000Y-89160000D01*
X116160000Y-100500000D02*
X116160000Y-95500000D01*
X116000000Y-89000000D02*
X111040000Y-89000000D01*
D17*
X116160000Y-89160000D02*
X116000000Y-89000000D01*
%TO.N,/SDA*%
X105960000Y-100460000D02*
X106000000Y-100500000D01*
%TO.N,/<NO NET>*%
X111080000Y-95540000D02*
X111040000Y-95500000D01*
X59960000Y-152540000D02*
X57500000Y-152540000D01*
D18*
%TO.N,/GND*%
X69000000Y-138500000D02*
X69000000Y-147500000D01*
X79920000Y-147500000D02*
X69000000Y-147500000D01*
X57500000Y-138500000D02*
X69000000Y-138500000D01*
X69000000Y-147500000D02*
X66500000Y-147500000D01*
X57500000Y-104000000D02*
X59985000Y-104000000D01*
X57500000Y-138500000D02*
X57500000Y-104000000D01*
D19*
%TO.N,/<NO NET>*%
X66540000Y-109040000D02*
X66485000Y-109095000D01*
X67500000Y-109040000D02*
X66540000Y-109040000D01*
D18*
X66485000Y-109095000D02*
X60000000Y-109095000D01*
X96000000Y-109040000D02*
X96000000Y-105440000D01*
X67500000Y-109040000D02*
X96000000Y-109040000D01*
D17*
%TO.N,/RelSwitch*%
X60055000Y-106500000D02*
X67500000Y-106500000D01*
X60000000Y-106555000D02*
X60055000Y-106500000D01*
%TO.N,/SDA*%
X106000000Y-89040000D02*
X105960000Y-89000000D01*
%TO.N,/SCL*%
X98080000Y-77000000D02*
X103420000Y-77000000D01*
X103420000Y-77000000D02*
X103420000Y-89000000D01*
X98000000Y-77080000D02*
X98080000Y-77000000D01*
%TO.N,/SDA*%
X98040000Y-74500000D02*
X98000000Y-74540000D01*
X105960000Y-74500000D02*
X98040000Y-74500000D01*
X105960000Y-89000000D02*
X105960000Y-74500000D01*
D18*
%TO.N,/GND*%
X90990000Y-100510000D02*
X90990000Y-105370000D01*
X92000000Y-99500000D02*
X90990000Y-100510000D01*
X92000000Y-97030000D02*
X92000000Y-99500000D01*
D17*
X91970000Y-97000000D02*
X92000000Y-97030000D01*
%TO.N,/<NO NET>*%
X96000000Y-105440000D02*
X96070000Y-105370000D01*
%TO.N,/D5 - Data outside*%
X106230000Y-124968000D02*
X106230000Y-120610000D01*
X104000000Y-125000000D02*
X106198000Y-125000000D01*
X106198000Y-125000000D02*
X106230000Y-124968000D01*
X104000000Y-157580000D02*
X104000000Y-125000000D01*
X107420000Y-157580000D02*
X107500000Y-157660000D01*
%TO.N,/<NO NET>*%
X116920000Y-152580000D02*
X117000000Y-152500000D01*
D18*
X107500000Y-152580000D02*
X116920000Y-152580000D01*
D17*
%TO.N,/GND*%
X80000000Y-147420000D02*
X79920000Y-147500000D01*
X59985000Y-104000000D02*
X60000000Y-104015000D01*
%TD*%
M02*
