%TF.GenerationSoftware,KiCad,Pcbnew,8.0.2*%
%TF.CreationDate,2024-06-03T18:55:45+02:00*%
%TF.ProjectId,Taupunkt,54617570-756e-46b7-942e-6b696361645f,rev?*%
%TF.SameCoordinates,Original*%
%TF.FileFunction,Drillmap*%
%TF.FilePolarity,Positive*%
%FSLAX45Y45*%
G04 Gerber Fmt 4.5, Leading zero omitted, Abs format (unit mm)*
G04 Created by KiCad (PCBNEW 8.0.2) date 2024-06-03 18:55:45*
%MOMM*%
%LPD*%
G01*
G04 APERTURE LIST*
%ADD10C,0.050000*%
%ADD11C,0.200000*%
%ADD12C,0.320000*%
G04 APERTURE END LIST*
D10*
X13000000Y-8000000D02*
X14000000Y-8000000D01*
X14000000Y-14500000D01*
X13000000Y-14500000D01*
X13000000Y-16400000D01*
X5000000Y-16400000D01*
X5000000Y-6000000D01*
X13000000Y-6000000D01*
X13000000Y-8000000D01*
D11*
D12*
X12990000Y-8840000D02*
X13310000Y-9160000D01*
X13310000Y-8840000D02*
X12990000Y-9160000D01*
X12990000Y-13340000D02*
X13310000Y-13660000D01*
X13310000Y-13340000D02*
X12990000Y-13660000D01*
D11*
X5258277Y-16713984D02*
X5258277Y-16513984D01*
X5258277Y-16513984D02*
X5305896Y-16513984D01*
X5305896Y-16513984D02*
X5334467Y-16523508D01*
X5334467Y-16523508D02*
X5353515Y-16542555D01*
X5353515Y-16542555D02*
X5363039Y-16561603D01*
X5363039Y-16561603D02*
X5372563Y-16599698D01*
X5372563Y-16599698D02*
X5372563Y-16628269D01*
X5372563Y-16628269D02*
X5363039Y-16666365D01*
X5363039Y-16666365D02*
X5353515Y-16685412D01*
X5353515Y-16685412D02*
X5334467Y-16704460D01*
X5334467Y-16704460D02*
X5305896Y-16713984D01*
X5305896Y-16713984D02*
X5258277Y-16713984D01*
X5458277Y-16713984D02*
X5458277Y-16580650D01*
X5458277Y-16618746D02*
X5467801Y-16599698D01*
X5467801Y-16599698D02*
X5477324Y-16590174D01*
X5477324Y-16590174D02*
X5496372Y-16580650D01*
X5496372Y-16580650D02*
X5515420Y-16580650D01*
X5582086Y-16713984D02*
X5582086Y-16580650D01*
X5582086Y-16513984D02*
X5572563Y-16523508D01*
X5572563Y-16523508D02*
X5582086Y-16533031D01*
X5582086Y-16533031D02*
X5591610Y-16523508D01*
X5591610Y-16523508D02*
X5582086Y-16513984D01*
X5582086Y-16513984D02*
X5582086Y-16533031D01*
X5705896Y-16713984D02*
X5686848Y-16704460D01*
X5686848Y-16704460D02*
X5677324Y-16685412D01*
X5677324Y-16685412D02*
X5677324Y-16513984D01*
X5810658Y-16713984D02*
X5791610Y-16704460D01*
X5791610Y-16704460D02*
X5782086Y-16685412D01*
X5782086Y-16685412D02*
X5782086Y-16513984D01*
X6039229Y-16713984D02*
X6039229Y-16513984D01*
X6039229Y-16513984D02*
X6105896Y-16656841D01*
X6105896Y-16656841D02*
X6172562Y-16513984D01*
X6172562Y-16513984D02*
X6172562Y-16713984D01*
X6353515Y-16713984D02*
X6353515Y-16609222D01*
X6353515Y-16609222D02*
X6343991Y-16590174D01*
X6343991Y-16590174D02*
X6324943Y-16580650D01*
X6324943Y-16580650D02*
X6286848Y-16580650D01*
X6286848Y-16580650D02*
X6267801Y-16590174D01*
X6353515Y-16704460D02*
X6334467Y-16713984D01*
X6334467Y-16713984D02*
X6286848Y-16713984D01*
X6286848Y-16713984D02*
X6267801Y-16704460D01*
X6267801Y-16704460D02*
X6258277Y-16685412D01*
X6258277Y-16685412D02*
X6258277Y-16666365D01*
X6258277Y-16666365D02*
X6267801Y-16647317D01*
X6267801Y-16647317D02*
X6286848Y-16637793D01*
X6286848Y-16637793D02*
X6334467Y-16637793D01*
X6334467Y-16637793D02*
X6353515Y-16628269D01*
X6448753Y-16580650D02*
X6448753Y-16780650D01*
X6448753Y-16590174D02*
X6467801Y-16580650D01*
X6467801Y-16580650D02*
X6505896Y-16580650D01*
X6505896Y-16580650D02*
X6524943Y-16590174D01*
X6524943Y-16590174D02*
X6534467Y-16599698D01*
X6534467Y-16599698D02*
X6543991Y-16618746D01*
X6543991Y-16618746D02*
X6543991Y-16675888D01*
X6543991Y-16675888D02*
X6534467Y-16694936D01*
X6534467Y-16694936D02*
X6524943Y-16704460D01*
X6524943Y-16704460D02*
X6505896Y-16713984D01*
X6505896Y-16713984D02*
X6467801Y-16713984D01*
X6467801Y-16713984D02*
X6448753Y-16704460D01*
X6629705Y-16694936D02*
X6639229Y-16704460D01*
X6639229Y-16704460D02*
X6629705Y-16713984D01*
X6629705Y-16713984D02*
X6620182Y-16704460D01*
X6620182Y-16704460D02*
X6629705Y-16694936D01*
X6629705Y-16694936D02*
X6629705Y-16713984D01*
X6629705Y-16590174D02*
X6639229Y-16599698D01*
X6639229Y-16599698D02*
X6629705Y-16609222D01*
X6629705Y-16609222D02*
X6620182Y-16599698D01*
X6620182Y-16599698D02*
X6629705Y-16590174D01*
X6629705Y-16590174D02*
X6629705Y-16609222D01*
X4797500Y-16942500D02*
X4997500Y-17142500D01*
X4997500Y-16942500D02*
X4797500Y-17142500D01*
X5239229Y-16933984D02*
X5363039Y-16933984D01*
X5363039Y-16933984D02*
X5296372Y-17010174D01*
X5296372Y-17010174D02*
X5324944Y-17010174D01*
X5324944Y-17010174D02*
X5343991Y-17019698D01*
X5343991Y-17019698D02*
X5353515Y-17029222D01*
X5353515Y-17029222D02*
X5363039Y-17048270D01*
X5363039Y-17048270D02*
X5363039Y-17095889D01*
X5363039Y-17095889D02*
X5353515Y-17114936D01*
X5353515Y-17114936D02*
X5343991Y-17124460D01*
X5343991Y-17124460D02*
X5324944Y-17133984D01*
X5324944Y-17133984D02*
X5267801Y-17133984D01*
X5267801Y-17133984D02*
X5248753Y-17124460D01*
X5248753Y-17124460D02*
X5239229Y-17114936D01*
X5448753Y-17114936D02*
X5458277Y-17124460D01*
X5458277Y-17124460D02*
X5448753Y-17133984D01*
X5448753Y-17133984D02*
X5439229Y-17124460D01*
X5439229Y-17124460D02*
X5448753Y-17114936D01*
X5448753Y-17114936D02*
X5448753Y-17133984D01*
X5534467Y-16953031D02*
X5543991Y-16943508D01*
X5543991Y-16943508D02*
X5563039Y-16933984D01*
X5563039Y-16933984D02*
X5610658Y-16933984D01*
X5610658Y-16933984D02*
X5629705Y-16943508D01*
X5629705Y-16943508D02*
X5639229Y-16953031D01*
X5639229Y-16953031D02*
X5648753Y-16972079D01*
X5648753Y-16972079D02*
X5648753Y-16991127D01*
X5648753Y-16991127D02*
X5639229Y-17019698D01*
X5639229Y-17019698D02*
X5524944Y-17133984D01*
X5524944Y-17133984D02*
X5648753Y-17133984D01*
X5772562Y-16933984D02*
X5791610Y-16933984D01*
X5791610Y-16933984D02*
X5810658Y-16943508D01*
X5810658Y-16943508D02*
X5820182Y-16953031D01*
X5820182Y-16953031D02*
X5829705Y-16972079D01*
X5829705Y-16972079D02*
X5839229Y-17010174D01*
X5839229Y-17010174D02*
X5839229Y-17057793D01*
X5839229Y-17057793D02*
X5829705Y-17095889D01*
X5829705Y-17095889D02*
X5820182Y-17114936D01*
X5820182Y-17114936D02*
X5810658Y-17124460D01*
X5810658Y-17124460D02*
X5791610Y-17133984D01*
X5791610Y-17133984D02*
X5772562Y-17133984D01*
X5772562Y-17133984D02*
X5753515Y-17124460D01*
X5753515Y-17124460D02*
X5743991Y-17114936D01*
X5743991Y-17114936D02*
X5734467Y-17095889D01*
X5734467Y-17095889D02*
X5724943Y-17057793D01*
X5724943Y-17057793D02*
X5724943Y-17010174D01*
X5724943Y-17010174D02*
X5734467Y-16972079D01*
X5734467Y-16972079D02*
X5743991Y-16953031D01*
X5743991Y-16953031D02*
X5753515Y-16943508D01*
X5753515Y-16943508D02*
X5772562Y-16933984D01*
X5963039Y-16933984D02*
X5982086Y-16933984D01*
X5982086Y-16933984D02*
X6001134Y-16943508D01*
X6001134Y-16943508D02*
X6010658Y-16953031D01*
X6010658Y-16953031D02*
X6020182Y-16972079D01*
X6020182Y-16972079D02*
X6029705Y-17010174D01*
X6029705Y-17010174D02*
X6029705Y-17057793D01*
X6029705Y-17057793D02*
X6020182Y-17095889D01*
X6020182Y-17095889D02*
X6010658Y-17114936D01*
X6010658Y-17114936D02*
X6001134Y-17124460D01*
X6001134Y-17124460D02*
X5982086Y-17133984D01*
X5982086Y-17133984D02*
X5963039Y-17133984D01*
X5963039Y-17133984D02*
X5943991Y-17124460D01*
X5943991Y-17124460D02*
X5934467Y-17114936D01*
X5934467Y-17114936D02*
X5924943Y-17095889D01*
X5924943Y-17095889D02*
X5915420Y-17057793D01*
X5915420Y-17057793D02*
X5915420Y-17010174D01*
X5915420Y-17010174D02*
X5924943Y-16972079D01*
X5924943Y-16972079D02*
X5934467Y-16953031D01*
X5934467Y-16953031D02*
X5943991Y-16943508D01*
X5943991Y-16943508D02*
X5963039Y-16933984D01*
X6115420Y-17133984D02*
X6115420Y-17000650D01*
X6115420Y-17019698D02*
X6124943Y-17010174D01*
X6124943Y-17010174D02*
X6143991Y-17000650D01*
X6143991Y-17000650D02*
X6172563Y-17000650D01*
X6172563Y-17000650D02*
X6191610Y-17010174D01*
X6191610Y-17010174D02*
X6201134Y-17029222D01*
X6201134Y-17029222D02*
X6201134Y-17133984D01*
X6201134Y-17029222D02*
X6210658Y-17010174D01*
X6210658Y-17010174D02*
X6229705Y-17000650D01*
X6229705Y-17000650D02*
X6258277Y-17000650D01*
X6258277Y-17000650D02*
X6277324Y-17010174D01*
X6277324Y-17010174D02*
X6286848Y-17029222D01*
X6286848Y-17029222D02*
X6286848Y-17133984D01*
X6382086Y-17133984D02*
X6382086Y-17000650D01*
X6382086Y-17019698D02*
X6391610Y-17010174D01*
X6391610Y-17010174D02*
X6410658Y-17000650D01*
X6410658Y-17000650D02*
X6439229Y-17000650D01*
X6439229Y-17000650D02*
X6458277Y-17010174D01*
X6458277Y-17010174D02*
X6467801Y-17029222D01*
X6467801Y-17029222D02*
X6467801Y-17133984D01*
X6467801Y-17029222D02*
X6477324Y-17010174D01*
X6477324Y-17010174D02*
X6496372Y-17000650D01*
X6496372Y-17000650D02*
X6524943Y-17000650D01*
X6524943Y-17000650D02*
X6543991Y-17010174D01*
X6543991Y-17010174D02*
X6553515Y-17029222D01*
X6553515Y-17029222D02*
X6553515Y-17133984D01*
X6943991Y-16924460D02*
X6772563Y-17181603D01*
X7201134Y-16933984D02*
X7220182Y-16933984D01*
X7220182Y-16933984D02*
X7239229Y-16943508D01*
X7239229Y-16943508D02*
X7248753Y-16953031D01*
X7248753Y-16953031D02*
X7258277Y-16972079D01*
X7258277Y-16972079D02*
X7267801Y-17010174D01*
X7267801Y-17010174D02*
X7267801Y-17057793D01*
X7267801Y-17057793D02*
X7258277Y-17095889D01*
X7258277Y-17095889D02*
X7248753Y-17114936D01*
X7248753Y-17114936D02*
X7239229Y-17124460D01*
X7239229Y-17124460D02*
X7220182Y-17133984D01*
X7220182Y-17133984D02*
X7201134Y-17133984D01*
X7201134Y-17133984D02*
X7182086Y-17124460D01*
X7182086Y-17124460D02*
X7172563Y-17114936D01*
X7172563Y-17114936D02*
X7163039Y-17095889D01*
X7163039Y-17095889D02*
X7153515Y-17057793D01*
X7153515Y-17057793D02*
X7153515Y-17010174D01*
X7153515Y-17010174D02*
X7163039Y-16972079D01*
X7163039Y-16972079D02*
X7172563Y-16953031D01*
X7172563Y-16953031D02*
X7182086Y-16943508D01*
X7182086Y-16943508D02*
X7201134Y-16933984D01*
X7353515Y-17114936D02*
X7363039Y-17124460D01*
X7363039Y-17124460D02*
X7353515Y-17133984D01*
X7353515Y-17133984D02*
X7343991Y-17124460D01*
X7343991Y-17124460D02*
X7353515Y-17114936D01*
X7353515Y-17114936D02*
X7353515Y-17133984D01*
X7553515Y-17133984D02*
X7439229Y-17133984D01*
X7496372Y-17133984D02*
X7496372Y-16933984D01*
X7496372Y-16933984D02*
X7477325Y-16962555D01*
X7477325Y-16962555D02*
X7458277Y-16981603D01*
X7458277Y-16981603D02*
X7439229Y-16991127D01*
X7629706Y-16953031D02*
X7639229Y-16943508D01*
X7639229Y-16943508D02*
X7658277Y-16933984D01*
X7658277Y-16933984D02*
X7705896Y-16933984D01*
X7705896Y-16933984D02*
X7724944Y-16943508D01*
X7724944Y-16943508D02*
X7734467Y-16953031D01*
X7734467Y-16953031D02*
X7743991Y-16972079D01*
X7743991Y-16972079D02*
X7743991Y-16991127D01*
X7743991Y-16991127D02*
X7734467Y-17019698D01*
X7734467Y-17019698D02*
X7620182Y-17133984D01*
X7620182Y-17133984D02*
X7743991Y-17133984D01*
X7915420Y-16933984D02*
X7877325Y-16933984D01*
X7877325Y-16933984D02*
X7858277Y-16943508D01*
X7858277Y-16943508D02*
X7848753Y-16953031D01*
X7848753Y-16953031D02*
X7829706Y-16981603D01*
X7829706Y-16981603D02*
X7820182Y-17019698D01*
X7820182Y-17019698D02*
X7820182Y-17095889D01*
X7820182Y-17095889D02*
X7829706Y-17114936D01*
X7829706Y-17114936D02*
X7839229Y-17124460D01*
X7839229Y-17124460D02*
X7858277Y-17133984D01*
X7858277Y-17133984D02*
X7896372Y-17133984D01*
X7896372Y-17133984D02*
X7915420Y-17124460D01*
X7915420Y-17124460D02*
X7924944Y-17114936D01*
X7924944Y-17114936D02*
X7934467Y-17095889D01*
X7934467Y-17095889D02*
X7934467Y-17048270D01*
X7934467Y-17048270D02*
X7924944Y-17029222D01*
X7924944Y-17029222D02*
X7915420Y-17019698D01*
X7915420Y-17019698D02*
X7896372Y-17010174D01*
X7896372Y-17010174D02*
X7858277Y-17010174D01*
X7858277Y-17010174D02*
X7839229Y-17019698D01*
X7839229Y-17019698D02*
X7829706Y-17029222D01*
X7829706Y-17029222D02*
X7820182Y-17048270D01*
X8058277Y-16933984D02*
X8077325Y-16933984D01*
X8077325Y-16933984D02*
X8096372Y-16943508D01*
X8096372Y-16943508D02*
X8105896Y-16953031D01*
X8105896Y-16953031D02*
X8115420Y-16972079D01*
X8115420Y-16972079D02*
X8124944Y-17010174D01*
X8124944Y-17010174D02*
X8124944Y-17057793D01*
X8124944Y-17057793D02*
X8115420Y-17095889D01*
X8115420Y-17095889D02*
X8105896Y-17114936D01*
X8105896Y-17114936D02*
X8096372Y-17124460D01*
X8096372Y-17124460D02*
X8077325Y-17133984D01*
X8077325Y-17133984D02*
X8058277Y-17133984D01*
X8058277Y-17133984D02*
X8039229Y-17124460D01*
X8039229Y-17124460D02*
X8029706Y-17114936D01*
X8029706Y-17114936D02*
X8020182Y-17095889D01*
X8020182Y-17095889D02*
X8010658Y-17057793D01*
X8010658Y-17057793D02*
X8010658Y-17010174D01*
X8010658Y-17010174D02*
X8020182Y-16972079D01*
X8020182Y-16972079D02*
X8029706Y-16953031D01*
X8029706Y-16953031D02*
X8039229Y-16943508D01*
X8039229Y-16943508D02*
X8058277Y-16933984D01*
X8201134Y-16933984D02*
X8201134Y-16972079D01*
X8277325Y-16933984D02*
X8277325Y-16972079D01*
X8572563Y-17210174D02*
X8563039Y-17200650D01*
X8563039Y-17200650D02*
X8543991Y-17172079D01*
X8543991Y-17172079D02*
X8534468Y-17153031D01*
X8534468Y-17153031D02*
X8524944Y-17124460D01*
X8524944Y-17124460D02*
X8515420Y-17076841D01*
X8515420Y-17076841D02*
X8515420Y-17038746D01*
X8515420Y-17038746D02*
X8524944Y-16991127D01*
X8524944Y-16991127D02*
X8534468Y-16962555D01*
X8534468Y-16962555D02*
X8543991Y-16943508D01*
X8543991Y-16943508D02*
X8563039Y-16914936D01*
X8563039Y-16914936D02*
X8572563Y-16905412D01*
X8639230Y-16953031D02*
X8648753Y-16943508D01*
X8648753Y-16943508D02*
X8667801Y-16933984D01*
X8667801Y-16933984D02*
X8715420Y-16933984D01*
X8715420Y-16933984D02*
X8734468Y-16943508D01*
X8734468Y-16943508D02*
X8743991Y-16953031D01*
X8743991Y-16953031D02*
X8753515Y-16972079D01*
X8753515Y-16972079D02*
X8753515Y-16991127D01*
X8753515Y-16991127D02*
X8743991Y-17019698D01*
X8743991Y-17019698D02*
X8629706Y-17133984D01*
X8629706Y-17133984D02*
X8753515Y-17133984D01*
X8991611Y-17133984D02*
X8991611Y-16933984D01*
X9077325Y-17133984D02*
X9077325Y-17029222D01*
X9077325Y-17029222D02*
X9067801Y-17010174D01*
X9067801Y-17010174D02*
X9048753Y-17000650D01*
X9048753Y-17000650D02*
X9020182Y-17000650D01*
X9020182Y-17000650D02*
X9001134Y-17010174D01*
X9001134Y-17010174D02*
X8991611Y-17019698D01*
X9201134Y-17133984D02*
X9182087Y-17124460D01*
X9182087Y-17124460D02*
X9172563Y-17114936D01*
X9172563Y-17114936D02*
X9163039Y-17095889D01*
X9163039Y-17095889D02*
X9163039Y-17038746D01*
X9163039Y-17038746D02*
X9172563Y-17019698D01*
X9172563Y-17019698D02*
X9182087Y-17010174D01*
X9182087Y-17010174D02*
X9201134Y-17000650D01*
X9201134Y-17000650D02*
X9229706Y-17000650D01*
X9229706Y-17000650D02*
X9248753Y-17010174D01*
X9248753Y-17010174D02*
X9258277Y-17019698D01*
X9258277Y-17019698D02*
X9267801Y-17038746D01*
X9267801Y-17038746D02*
X9267801Y-17095889D01*
X9267801Y-17095889D02*
X9258277Y-17114936D01*
X9258277Y-17114936D02*
X9248753Y-17124460D01*
X9248753Y-17124460D02*
X9229706Y-17133984D01*
X9229706Y-17133984D02*
X9201134Y-17133984D01*
X9382087Y-17133984D02*
X9363039Y-17124460D01*
X9363039Y-17124460D02*
X9353515Y-17105412D01*
X9353515Y-17105412D02*
X9353515Y-16933984D01*
X9534468Y-17124460D02*
X9515420Y-17133984D01*
X9515420Y-17133984D02*
X9477325Y-17133984D01*
X9477325Y-17133984D02*
X9458277Y-17124460D01*
X9458277Y-17124460D02*
X9448753Y-17105412D01*
X9448753Y-17105412D02*
X9448753Y-17029222D01*
X9448753Y-17029222D02*
X9458277Y-17010174D01*
X9458277Y-17010174D02*
X9477325Y-17000650D01*
X9477325Y-17000650D02*
X9515420Y-17000650D01*
X9515420Y-17000650D02*
X9534468Y-17010174D01*
X9534468Y-17010174D02*
X9543992Y-17029222D01*
X9543992Y-17029222D02*
X9543992Y-17048270D01*
X9543992Y-17048270D02*
X9448753Y-17067317D01*
X9620182Y-17124460D02*
X9639230Y-17133984D01*
X9639230Y-17133984D02*
X9677325Y-17133984D01*
X9677325Y-17133984D02*
X9696373Y-17124460D01*
X9696373Y-17124460D02*
X9705896Y-17105412D01*
X9705896Y-17105412D02*
X9705896Y-17095889D01*
X9705896Y-17095889D02*
X9696373Y-17076841D01*
X9696373Y-17076841D02*
X9677325Y-17067317D01*
X9677325Y-17067317D02*
X9648753Y-17067317D01*
X9648753Y-17067317D02*
X9629706Y-17057793D01*
X9629706Y-17057793D02*
X9620182Y-17038746D01*
X9620182Y-17038746D02*
X9620182Y-17029222D01*
X9620182Y-17029222D02*
X9629706Y-17010174D01*
X9629706Y-17010174D02*
X9648753Y-17000650D01*
X9648753Y-17000650D02*
X9677325Y-17000650D01*
X9677325Y-17000650D02*
X9696373Y-17010174D01*
X9772563Y-17210174D02*
X9782087Y-17200650D01*
X9782087Y-17200650D02*
X9801134Y-17172079D01*
X9801134Y-17172079D02*
X9810658Y-17153031D01*
X9810658Y-17153031D02*
X9820182Y-17124460D01*
X9820182Y-17124460D02*
X9829706Y-17076841D01*
X9829706Y-17076841D02*
X9829706Y-17038746D01*
X9829706Y-17038746D02*
X9820182Y-16991127D01*
X9820182Y-16991127D02*
X9810658Y-16962555D01*
X9810658Y-16962555D02*
X9801134Y-16943508D01*
X9801134Y-16943508D02*
X9782087Y-16914936D01*
X9782087Y-16914936D02*
X9772563Y-16905412D01*
X10134468Y-17210174D02*
X10124944Y-17200650D01*
X10124944Y-17200650D02*
X10105896Y-17172079D01*
X10105896Y-17172079D02*
X10096373Y-17153031D01*
X10096373Y-17153031D02*
X10086849Y-17124460D01*
X10086849Y-17124460D02*
X10077325Y-17076841D01*
X10077325Y-17076841D02*
X10077325Y-17038746D01*
X10077325Y-17038746D02*
X10086849Y-16991127D01*
X10086849Y-16991127D02*
X10096373Y-16962555D01*
X10096373Y-16962555D02*
X10105896Y-16943508D01*
X10105896Y-16943508D02*
X10124944Y-16914936D01*
X10124944Y-16914936D02*
X10134468Y-16905412D01*
X10210658Y-17000650D02*
X10210658Y-17133984D01*
X10210658Y-17019698D02*
X10220182Y-17010174D01*
X10220182Y-17010174D02*
X10239230Y-17000650D01*
X10239230Y-17000650D02*
X10267801Y-17000650D01*
X10267801Y-17000650D02*
X10286849Y-17010174D01*
X10286849Y-17010174D02*
X10296373Y-17029222D01*
X10296373Y-17029222D02*
X10296373Y-17133984D01*
X10420182Y-17133984D02*
X10401134Y-17124460D01*
X10401134Y-17124460D02*
X10391611Y-17114936D01*
X10391611Y-17114936D02*
X10382087Y-17095889D01*
X10382087Y-17095889D02*
X10382087Y-17038746D01*
X10382087Y-17038746D02*
X10391611Y-17019698D01*
X10391611Y-17019698D02*
X10401134Y-17010174D01*
X10401134Y-17010174D02*
X10420182Y-17000650D01*
X10420182Y-17000650D02*
X10448754Y-17000650D01*
X10448754Y-17000650D02*
X10467801Y-17010174D01*
X10467801Y-17010174D02*
X10477325Y-17019698D01*
X10477325Y-17019698D02*
X10486849Y-17038746D01*
X10486849Y-17038746D02*
X10486849Y-17095889D01*
X10486849Y-17095889D02*
X10477325Y-17114936D01*
X10477325Y-17114936D02*
X10467801Y-17124460D01*
X10467801Y-17124460D02*
X10448754Y-17133984D01*
X10448754Y-17133984D02*
X10420182Y-17133984D01*
X10543992Y-17000650D02*
X10620182Y-17000650D01*
X10572563Y-16933984D02*
X10572563Y-17105412D01*
X10572563Y-17105412D02*
X10582087Y-17124460D01*
X10582087Y-17124460D02*
X10601134Y-17133984D01*
X10601134Y-17133984D02*
X10620182Y-17133984D01*
X10839230Y-17000650D02*
X10839230Y-17200650D01*
X10839230Y-17010174D02*
X10858277Y-17000650D01*
X10858277Y-17000650D02*
X10896373Y-17000650D01*
X10896373Y-17000650D02*
X10915420Y-17010174D01*
X10915420Y-17010174D02*
X10924944Y-17019698D01*
X10924944Y-17019698D02*
X10934468Y-17038746D01*
X10934468Y-17038746D02*
X10934468Y-17095889D01*
X10934468Y-17095889D02*
X10924944Y-17114936D01*
X10924944Y-17114936D02*
X10915420Y-17124460D01*
X10915420Y-17124460D02*
X10896373Y-17133984D01*
X10896373Y-17133984D02*
X10858277Y-17133984D01*
X10858277Y-17133984D02*
X10839230Y-17124460D01*
X11048754Y-17133984D02*
X11029706Y-17124460D01*
X11029706Y-17124460D02*
X11020182Y-17105412D01*
X11020182Y-17105412D02*
X11020182Y-16933984D01*
X11210658Y-17133984D02*
X11210658Y-17029222D01*
X11210658Y-17029222D02*
X11201134Y-17010174D01*
X11201134Y-17010174D02*
X11182087Y-17000650D01*
X11182087Y-17000650D02*
X11143992Y-17000650D01*
X11143992Y-17000650D02*
X11124944Y-17010174D01*
X11210658Y-17124460D02*
X11191611Y-17133984D01*
X11191611Y-17133984D02*
X11143992Y-17133984D01*
X11143992Y-17133984D02*
X11124944Y-17124460D01*
X11124944Y-17124460D02*
X11115420Y-17105412D01*
X11115420Y-17105412D02*
X11115420Y-17086365D01*
X11115420Y-17086365D02*
X11124944Y-17067317D01*
X11124944Y-17067317D02*
X11143992Y-17057793D01*
X11143992Y-17057793D02*
X11191611Y-17057793D01*
X11191611Y-17057793D02*
X11210658Y-17048270D01*
X11277325Y-17000650D02*
X11353515Y-17000650D01*
X11305896Y-16933984D02*
X11305896Y-17105412D01*
X11305896Y-17105412D02*
X11315420Y-17124460D01*
X11315420Y-17124460D02*
X11334468Y-17133984D01*
X11334468Y-17133984D02*
X11353515Y-17133984D01*
X11496373Y-17124460D02*
X11477325Y-17133984D01*
X11477325Y-17133984D02*
X11439230Y-17133984D01*
X11439230Y-17133984D02*
X11420182Y-17124460D01*
X11420182Y-17124460D02*
X11410658Y-17105412D01*
X11410658Y-17105412D02*
X11410658Y-17029222D01*
X11410658Y-17029222D02*
X11420182Y-17010174D01*
X11420182Y-17010174D02*
X11439230Y-17000650D01*
X11439230Y-17000650D02*
X11477325Y-17000650D01*
X11477325Y-17000650D02*
X11496373Y-17010174D01*
X11496373Y-17010174D02*
X11505896Y-17029222D01*
X11505896Y-17029222D02*
X11505896Y-17048270D01*
X11505896Y-17048270D02*
X11410658Y-17067317D01*
X11677325Y-17133984D02*
X11677325Y-16933984D01*
X11677325Y-17124460D02*
X11658277Y-17133984D01*
X11658277Y-17133984D02*
X11620182Y-17133984D01*
X11620182Y-17133984D02*
X11601134Y-17124460D01*
X11601134Y-17124460D02*
X11591611Y-17114936D01*
X11591611Y-17114936D02*
X11582087Y-17095889D01*
X11582087Y-17095889D02*
X11582087Y-17038746D01*
X11582087Y-17038746D02*
X11591611Y-17019698D01*
X11591611Y-17019698D02*
X11601134Y-17010174D01*
X11601134Y-17010174D02*
X11620182Y-17000650D01*
X11620182Y-17000650D02*
X11658277Y-17000650D01*
X11658277Y-17000650D02*
X11677325Y-17010174D01*
X11753515Y-17210174D02*
X11763039Y-17200650D01*
X11763039Y-17200650D02*
X11782087Y-17172079D01*
X11782087Y-17172079D02*
X11791611Y-17153031D01*
X11791611Y-17153031D02*
X11801134Y-17124460D01*
X11801134Y-17124460D02*
X11810658Y-17076841D01*
X11810658Y-17076841D02*
X11810658Y-17038746D01*
X11810658Y-17038746D02*
X11801134Y-16991127D01*
X11801134Y-16991127D02*
X11791611Y-16962555D01*
X11791611Y-16962555D02*
X11782087Y-16943508D01*
X11782087Y-16943508D02*
X11763039Y-16914936D01*
X11763039Y-16914936D02*
X11753515Y-16905412D01*
M02*
